<?xml version="1.0" encoding="UTF-8"?>
<svg id="Layer_1" data-name="Layer 1" xmlns="http://www.w3.org/2000/svg" viewBox="0 0 327 123">
  <defs>
    <style>
      .cls-1 {
        fill: #fff;
        stroke-width: 0px;
      }
    </style>
  </defs>
  <path class="cls-1" d="M61.21,44.04h-18.39v-9.47h46.89v9.39h-18.31v48.39h-10.26s.08-48.31.08-48.31ZM142.83,94.09l-6.95-6.16c-4.89,3.39-10.82,5.45-17.6,5.45-17.76,0-30.16-13.42-30.16-29.68v-.16c0-16.26,12.55-29.84,30.31-29.84s30.16,13.42,30.16,29.68v.16c0,6.55-2.13,12.71-5.84,17.76l6.63,5.6-6.55,7.18ZM128.47,81.3l-10.03-8.53,6.55-7.42,10.18,9.24c1.82-3.16,2.84-6.87,2.84-10.97v-.16c0-11.21-8.21-20.53-19.66-20.53s-19.5,9.16-19.5,20.37v.16c0,11.21,8.21,20.45,19.66,20.45,3.71.08,7.1-.95,9.95-2.61ZM157.6,34.57h10.18v48.55h30.39v9.24h-40.5l-.08-57.79h0Z"/>
  <g>
    <path class="cls-1" d="M249.72,62.04c10.58-4.82,18.95-13.18,23.84-23.6-8.13-9.95-21.47-15-34.81-11.84-17.37,4.11-28.58,20.68-26.45,37.97,13.1,3.71,26.45,2.53,37.42-2.53ZM280.43,52.33c-.79-3.16-1.89-6.16-3.39-8.84-2.05,11.05-7.1,20.92-14.45,28.5-9.24,9.63-22.18,15.55-36.31,16.26,7.89,5.76,18.16,8.21,28.42,5.76,18.55-4.42,30.08-23.05,25.74-41.68h0Z"/>
    <path class="cls-1" d="M207.41,71.91c-.16-.16-.24-.39-.39-.55.16.16.32.39.39.55ZM208.44,73.56c-.08-.16-.24-.32-.32-.47.16.16.24.32.32.47Z"/>
    <path class="cls-1" d="M256.04,67.17c12.87-9,21.08-23.92,21.47-40.81-.87,16.66-9.63,31.26-22.81,39.79-13.1,8.53-30.79,10.97-47.84,4.89.08.08.16.24.16.32.16.16.24.39.39.55l.71,1.18c.08.16.24.32.32.47.08.16.16.32.24.39,17.21,5.37,34.58,2.29,47.37-6.79Z"/>
  </g>
</svg>