<?xml version="1.0" encoding="UTF-8"?>
<svg id="Layer_1" data-name="Layer 1" xmlns="http://www.w3.org/2000/svg" viewBox="0 0 327 123">
  <defs>
    <style>
      .cls-1 {
        fill: #fff;
        stroke-width: 0px;
      }
    </style>
  </defs>
  <g>
    <path class="cls-1" d="M62.57,49.98l8.56,5.26c-4.53,5.26-12.87,9.21-22.48,9.21-13.13,0-20.47-6.64-17.3-18.48,3.17-11.84,14.07-18.48,27.65-18.48,9.16,0,15.33,4.02,16.97,9.16l-11.41,5.21c-1.24-3.31-4.08-4.91-8.25-4.91-6.15,0-11.19,3.27-12.73,9.02-1.55,5.75,1.75,9.02,7.89,9.02,4.17,0,7.89-1.5,11.12-5Z"/>
    <path class="cls-1" d="M76.19,45.96c3.17-11.84,14.17-18.48,28.04-18.48s21.37,6.64,18.2,18.48c-3.17,11.84-14.17,18.48-28.09,18.48s-21.32-6.64-18.15-18.48ZM110.13,45.96c1.53-5.7-1.69-9.02-8.43-9.02s-11.74,3.31-13.27,9.02c-1.53,5.7,1.69,9.02,8.43,9.02s11.74-3.33,13.27-9.02Z"/>
    <path class="cls-1" d="M138.09,28.61l4.99,13.78,12.32-13.78h13.27l-22.1,23.15-3.09,11.55h-12.09l3.09-11.55-9.7-23.14h13.32v-.02Z"/>
    <path class="cls-1" d="M162.49,45.96c3.17-11.84,14.17-18.48,28.04-18.48s21.37,6.64,18.2,18.48c-3.17,11.84-14.17,18.48-28.09,18.48s-21.32-6.64-18.15-18.48ZM196.43,45.96c1.53-5.7-1.69-9.02-8.43-9.02s-11.74,3.31-13.27,9.02c-1.53,5.7,1.69,9.02,8.43,9.02s11.74-3.33,13.27-9.02Z"/>
    <path class="cls-1" d="M252.15,37.79h-13.72l-6.84,25.53h-12.09l6.84-25.53h-13.67l2.45-9.16h39.5l-2.47,9.16Z"/>
    <path class="cls-1" d="M290.01,54.58l-2.34,8.72h-38.11l9.29-34.69h37.56l-2.34,8.72h-25.72l-1.18,4.41h20.95l-2.15,8.03h-20.95l-1.29,4.81h26.29Z"/>
  </g>
  <g>
    <path class="cls-1" d="M80.29,91.31l-.97,3.63h-17.21l4.92-18.39h4.21l-3.95,14.77h13v-.02Z"/>
    <path class="cls-1" d="M87.14,85.75c1.64-6.15,7.14-9.77,14.31-9.77s10.72,3.63,9.08,9.77c-1.64,6.15-7.14,9.77-14.31,9.77s-10.74-3.62-9.08-9.77ZM106.24,85.75c1.05-3.94-1.21-6.15-5.77-6.15s-8,2.21-9.05,6.15c-1.05,3.94,1.2,6.15,5.77,6.15s7.98-2.21,9.05-6.15Z"/>
    <path class="cls-1" d="M138.24,91.22c-2.5,2.5-6.63,4.3-11.62,4.3-7.38,0-10.9-3.63-9.26-9.77,1.64-6.15,7.11-9.77,14.5-9.77,4.53,0,7.27,1.7,8.64,3.49l-3.92,2.39c-1.18-1.58-2.85-2.31-5.64-2.31-4.81,0-8.19,2.1-9.29,6.2-1.1,4.09,1.23,6.2,6.12,6.2,2.76,0,5.18-.61,6.92-2.18l.48-1.78h-6.93l.91-3.41h10.88l-1.78,6.64Z"/>
    <path class="cls-1" d="M146.81,94.94l4.92-18.39h4.21l-4.92,18.39h-4.21Z"/>
    <path class="cls-1" d="M182.47,89.37c-.97,3.63-5.08,6.15-11.6,6.15-4.65,0-8.08-1.31-10.26-3.71l3.19-2.87c1.7,2.07,4.37,3.04,8.11,3.04s5.82-.72,6.21-2.23c.41-1.53-1.37-1.94-5.5-2.31-5.13-.45-9.72-1.61-8.65-5.54,1.04-3.84,5.69-5.94,11.36-5.94,4.02,0,7.22,1,9.08,2.8l-3.09,2.92c-1.61-1.55-3.94-2.18-6.93-2.21-2.49-.03-5.66.41-6.1,2.1-.43,1.58,2.17,1.74,5.74,2.02,5.74.51,9.53,1.74,8.44,5.78Z"/>
    <path class="cls-1" d="M211.34,80.17h-8.05l-3.95,14.77h-4.21l3.95-14.77h-7.98l.97-3.63h20.24l-.97,3.63Z"/>
    <path class="cls-1" d="M216.04,94.94l4.92-18.39h4.21l-4.92,18.39h-4.21Z"/>
    <path class="cls-1" d="M248.8,88.91l3.33,1.91c-2.44,2.6-6.55,4.7-11.34,4.7-6.92,0-10.42-3.65-8.78-9.77,1.64-6.12,7.11-9.77,14.21-9.77,4.62,0,7.6,2.14,8.6,4.68l-4.38,1.91c-.76-2.06-2.52-2.96-5.24-2.96-4.37,0-7.82,2.1-8.91,6.15-1.08,4.05,1.24,6.15,5.61,6.15,2.69-.02,4.96-.91,6.9-3.01Z"/>
    <path class="cls-1" d="M280.19,89.37c-.97,3.63-5.08,6.15-11.6,6.15-4.65,0-8.08-1.31-10.26-3.71l3.19-2.87c1.7,2.07,4.37,3.04,8.11,3.04s5.82-.72,6.21-2.23c.41-1.53-1.37-1.94-5.5-2.31-5.13-.45-9.72-1.61-8.65-5.54,1.04-3.84,5.69-5.94,11.36-5.94,4.02,0,7.22,1,9.08,2.8l-3.09,2.92c-1.61-1.55-3.94-2.18-6.93-2.21-2.49-.03-5.66.41-6.1,2.1-.43,1.58,2.17,1.74,5.74,2.02,5.72.51,9.53,1.74,8.44,5.78Z"/>
  </g>
</svg>