<?xml version="1.0" encoding="UTF-8"?>
<svg id="Layer_1" data-name="Layer 1" xmlns="http://www.w3.org/2000/svg" viewBox="0 0 327 123">
  <defs>
    <style>
      .cls-1 {
        fill: #fff;
        stroke-width: 0px;
      }
    </style>
  </defs>
  <g id="layer1">
    <path id="path10623" class="cls-1" d="M171.51,60.86l17.15,25.64h-15.94l-9.58-15.14-9.65,15.14h-15.58l17.15-25.43-16.43-24.57h15.93l8.79,14.07,9-14.07h15.58l-16.44,24.36ZM114.66,35.5c-15.44,0-26.87,11.43-26.87,26v.14c0,15.14,11.58,25.86,27.16,25.86,9.15,0,16.44-3.36,21.73-7.79v-22.43h-18.01l-6.97,10.14h11.83v6.07c-2,1.36-4.57,2.07-8,2.07-7.93,0-13.58-5.79-13.58-13.93v-.14c0-7.64,5.57-13.64,12.79-13.64,3.48,0,6.24.83,8.79,2.35l7.26-10.55c-4.39-2.67-9.53-4.15-16.12-4.15h0ZM239.21,61.36v.14c0,14.36-11.32,26-26.42,26s-26.28-11.5-26.28-25.86v-.14c0-14.36,11.32-26,26.42-26s26.28,11.5,26.28,25.86h0ZM225.31,61.5c0-7.29-5.03-13.5-12.51-13.5s-12.44,6.14-12.44,13.36v.14c0,7.22,5.1,13.5,12.58,13.5s12.37-6.14,12.37-13.36v-.14Z"/>
  </g>
</svg>