<?xml version="1.0" encoding="UTF-8"?>
<svg id="Layer_1" data-name="Layer 1" xmlns="http://www.w3.org/2000/svg" viewBox="0 0 327 123">
  <defs>
    <style>
      .cls-1 {
        fill: #fff;
        fill-rule: evenodd;
        stroke-width: 0px;
      }
    </style>
  </defs>
  <path class="cls-1" d="M98.59,97.58h129.76v-.74H98.59v.74ZM193.89,33.88c0-1.49-.34-2.84-1.08-3.99-.41-1.02-.75-2.1-1.42-2.98-.34-1.08-1.49-2.98-1.49-2.98-.88-1.15-1.35-2.44-1.96-3.72-.34-.41-.47-.95-.88-1.35-.14-.47-2.23-2.91-3.32-3.72-1.15-1.08-2.64-1.83-3.59-3.05-1.29-.81-2.71-1.22-3.99-1.83-1.49-.81-3.25-1.08-4.74-1.69-.95.07-1.89-.61-2.78-.41-.27-.14-1.49-.34-1.76-.27-.41.07-.2.54-.41.81-.41.74-.88,1.69-1.35,2.44-.14.41-.47.81-.74,1.15-.07.34-1.08,2.17-1.35,2.91-.27,1.02-1.08,1.76-1.56,2.64-.47.74-1.08,1.22-1.76,1.62-.41.41-.88.81-1.35,1.22-.07.2.14.34.2.41.61.34.95.95,1.49,1.35.41.34.81.81,1.08,1.15.41.54,1.08.95,1.42,1.62.47.47.68,1.15,1.08,1.69.41.47.47,1.02.81,1.42.54.14.88-.47,1.15-.74.61-.54,1.29-1.02,1.83-1.62,2.57-2.37,4.8-4.54,7.31-6.77.34-.34.68-.68,1.15-.88.14.14.2.34.27.47-.07.61-.14,1.15-.27,1.69-.54,1.62-1.22,3.05-1.76,4.67-.14.41-.41.74-.54,1.15-.2.2-.34.54-.47.81-.27.27-.34.68-.61,1.02-.34.2-.34.54-.54.88-.07.34-.68.95-.74,1.15-.54.47-1.76,1.49-1.76,1.49-.88.68-1.96.95-2.98,1.42-.34.2-.74.27-1.15.41-.81,0-1.56.07-2.44.14-.27.07-.81.07-.88.27-.27.95-.47,2.77-.47,2.77.07.41-.07.68,0,1.08-.14.74-.2,1.56-.27,2.37,0,.14-.27,3.45-.47,4.87-.07.2,0,.54-.14.74-.07.95-.07,1.96-.14,2.84-.14.74-.27,1.56-.34,2.3-.34.41-.54,1.83-.54,2.1-.14.2-.27.47-.54.54-.13,0-.2.07-.34.07-.2-.07-.2-.2-.27-.34-.27-1.08-.68-2.17-1.02-3.18-.09-.41-.2-.82-.34-1.22-.47-.88-.47-1.96-.54-2.91-.2-1.56-.47-3.38-.41-4.94.07-1.02,0-1.96,0-2.91,0-1.02.27-2.1.41-3.18-.07-1.15.41-2.44.2-3.52-.07-.47-.2-.41-.2-.68-.2-.34-.47-.54-.68-.88-1.62-1.15-2.91-2.57-4.26-3.93-.2-.07-.34-.2-.54-.27-.68.34-1.29.88-1.96,1.29-1.56.88-2.91,1.83-4.26,2.91-.81.47-1.56,1.29-2.5,1.42-.27.2-.68.34-.95.54-1.62-.14-4.67,0-4.67,0-.27,0-.61.07-.95,0-.2-.14-.34-.2-.47-.41.07-.27.14-.54.41-.61,1.02-.2,2.17-.61,3.05-1.15.74-.27,1.42-.74,2.03-1.29.2-.2.41-.34.68-.54.2-.54.88-.88,1.22-1.35.47-.88,1.22-1.35,1.76-2.17.88-.88,1.62-1.96,2.64-2.64.74-.34,1.56-.41,2.3-.68,1.29-.47,2.64-.74,3.93-1.35.61-.54,1.08-1.22,1.62-1.83,1.42-1.49,3.18-2.44,4.87-3.99.74-.74,1.49-1.83,2.23-2.64.74-1.15,1.62-2.17,2.5-3.25-.07-.14,0-.2-.07-.27-.14-.27-.47-.14-.68-.2-.74.2-1.56.2-2.3.2-1.96.27-3.86.41-5.62,1.08-.2.14-2.77.88-3.93,1.22-1.56.95-2.91,2.03-4.47,2.84-1.42.95-2.77,2.1-4.26,3.05l-.07.07c-.68.61-1.56,1.35-2.3,2.03-.2.27-.47.61-.74.81v.07l-.74.88c-.81,1.08-1.62,2.03-2.37,3.11-.2.34-.27.61-.61.88-.2.41-.41.88-.61,1.22-.07.54-.47.81-.54,1.35-.61.74-.88,1.76-1.29,2.5-.14.54-.41,1.02-.47,1.56,0,.07-.14.61-.2.74,0,.14-.14,1.29-.2,1.76-.07.27,0,.61-.07.88,0,.47-.07,1.35-.07,1.35,0,.68-.14,1.29,0,1.89.14.41-.07.95.07,1.42v.41c.07.34.07.61.07.95,0,.74.07,1.49.27,2.1,0,0,.2,2.3.61,3.25.14.54.41,1.15.47,1.69.2.54.41,1.08.54,1.62.34.47.34,1.08.61,1.56.74,1.69,1.56,3.38,2.44,5.08.34.68.54,1.49.95,2.17,1.02,1.62,2.17,3.25,3.45,4.67l.2.14.2.07c.13,0,.41-.27.54-.47-.88-2.71-2.3-5.28-2.44-8.12-.07-2.1-.41-4.06-.2-6.09.2-1.96.34-3.99,1.15-5.75,1.49-2.64,3.38-5.21,5.21-7.58l.14-.14s.68.14,1.02.41c.14.14,0,.41.14.54,0,0-.14.61-.2.88-.07.41-.27.88-.34,1.29-.27.27-.81,1.35-.88,1.69l-.07.34c-.54,1.62-1.42,3.11-1.83,4.81-.2.95-.14,1.9-.14,2.84,0,.68,0,1.49.07,2.03.14,1.02.27,1.89.54,2.84.27.54.34.88.61,1.49.27,1.08.61,1.96.95,2.98.14.14.2,1.02.74,1.15.54,0,1.02.07,1.56,0,.41.2.95.2,1.42.2,2.23.2,4.54.14,6.84.14,1.15-.2,2.17-.41,3.25-.54.88.07,1.83,0,2.71,0,.47-.07,1.15-.14,1.62-.14.61.07,1.49-.2,2.1,0,1.08.2,2.23.14,3.25.2.14,0,.14.14.14.27-.34.14,0,.54-.27.74-1.56.74-3.11,1.35-4.6,2.03l-.14.14c-1.08.68-2.44.74-3.45,1.49-.34.07-.61.14-.88.07-.61.07-1.08.27-1.62.47-2.42.54-4.86,1.01-7.31,1.42-.07.07-.61.41-.68.68-.14.07-.07.27-.27.41-.34.81-.2,1.69-.34,2.44.14.27.54.41.81.61.34.14.74.2,1.15.34.34.14.68.14.95.2.61.47,1.49.27,2.1.54.27,0,2.37.34,3.05.41,1.02.34,2.23-.07,3.25.07.54.14,1.02-.2,1.56-.07.68-.14,1.29-.2,1.96-.34,1.42-.54,2.84-.81,4.26-1.35,2.37-1.15,4.81-2.1,7.11-3.38.68-.27,1.35-.74,2.03-1.01,1.02-.68,2.23-1.08,3.05-2.03.27-.27.27-.2.47-.41.47-.95.41-2.03.27-3.11-1.15-1.76-1.83-3.59-2.84-5.35-.27-.88-.81-1.62-1.08-2.5-.27-.34-.34-.88-.61-1.22-.95-.07-1.83.27-2.71.27-.34.2-.81.27-1.22.47-.41-.07-.88.07-1.29-.07-.74.14-2.84.34-3.05.41-.88.14-1.76.2-2.64.41-.34,0-.54.07-1.02.14-.54,0-.88-.14-1.35-.14-.61.2-1.22.07-1.83.2-.14-.14-.41-.27-.41-.54,0-.07-.2-.34,0-.47.61-.07,1.08-.47,1.62-.61.2-.14.95-.14.88-.27,1.29-.54,2.71-.68,3.86-1.42.41,0,.74-.27,1.08-.34,1.69-.61,3.25-1.35,4.94-1.96,2.3-.54,4.2-1.69,6.36-2.44.47,0,.81-.2,1.15-.54.48-.54.75-1.22,1.15-1.89.74-.88,1.02-2.03,1.96-2.84.34-.41.47-.88.81-1.29,0-.61-.27-1.22-.54-1.76-.54-.81-1.08-1.69-1.49-2.5-1.01-1.35-1.42-3.05-1.69-4.6-.41-.61-1.01-.81-1.49-1.29h-.07c-.41-.27-.61-.47-.95-.81-.61-.41-.95-1.02-1.42-1.56-.47-.34-.61-.95-.68-1.42.81-.2,1.56-.07,2.37-.14.27.14.68-.07.95.07.41.47.74,1.02.95,1.62,2.23,3.11,4.87,5.69,7.04,8.66.47.2.27.81.41,1.22.2.74.27,1.62.41,2.37.34,1.56-.34,3.05-.27,4.67,0,0-.34,3.66-.61,5.28-.34,1.35-.27,2.77-.68,4.13-.14.81-.47,1.69-.68,2.57.14.41-.27.68-.2,1.15.2.2.48.2.68.27.27.07.2,0,.27-.14.34-.47.47-1.15.81-1.69.48-.61.61-1.29,1.08-1.89.2-.47.34-.88.61-1.35.68-1.69,1.23-3.43,1.62-5.21.2-.74.14-1.49.34-2.23.14-1.29.2-2.57.27-3.86-.14-1.02.14-2.3-.14-3.32h0ZM151.93,13.51c.41-.2.74.2,1.08.27.34.47.54,1.08.68,1.62.34.54-.07,1.08-.07,1.69-.2.41-.47.81-.68,1.22-.41.2-.74.61-1.22.27-.14.07-.47-.07-.54-.07-.47-.34-1.29-.2-1.29-.88-.14-1.08-.68-1.9-.81-2.91.61-1.01,1.96-.68,2.84-1.22h0ZM153.35,50.94c-.47.68-.61,1.35-1.02,2.1.07.2-.2.2-.34.27-.13.2-.34.27-.54.27-.34-.2-.68.14-1.02-.14-.47-.47-.74-1.08-.88-1.69-.27-.95.14-1.83.2-2.77.14-.54.41-1.15.68-1.62.14-.27.2-.54.47-.68.2-.14.34-.14.41-.2.47,0,.95-.27,1.35.2.07.27.27.34.41.61.14.88.54,1.69.54,2.5-.07.34-.2.74-.27,1.15ZM179.2,31.92l.14.14c.54.27,1.08.27,1.69.47.68.2,1.22.81,1.49,1.35.14.61.14,1.22.2,1.83,0,.81.75,2.37-.68,2.77-.68.07-1.29-.34-1.89-.61-.34-.07-.68-.41-.95-.54-1.01-.54-.81-1.76-1.22-2.57,0-.54-.14-1.22-.27-1.83-.07-.27.07-.47.2-.74.34-.4.81-.4,1.28-.27ZM137.78,87.15c0-1.42-.14-1.69,1.15-2.17h-5.01c1.35.47,1.49.74,1.49,2.17l.07,3.05c-1.49.2-1.89.27-2.77.27-3.38,0-6.23-2.64-6.23-6.16,0-3.72,2.91-6.23,6.77-6.23,2.17,0,3.66.68,4.54,2.03v-3.72c-.27.48-.47.61-.88.61-.07,0-.27-.07-.47-.07-1.42-.27-2.5-.41-3.45-.41-5.21,0-9.27,3.18-9.27,7.79s3.93,7.85,9,7.85c1.62,0,3.45-.27,5.08-.68v-4.33h0ZM163.5,76.26c-4.94,0-8.33,3.25-8.33,7.99s3.59,8.26,8.33,8.26,8.26-3.59,8.26-8.26c0-4.74-3.38-7.99-8.26-7.99h0ZM163.57,77.95c3.32,0,5.41,2.57,5.41,6.36s-2.3,6.5-5.55,6.5-5.48-2.84-5.48-6.5,2.37-6.36,5.62-6.36h0ZM203.03,76.73c-.27.27-.48.34-.68.34-.14,0-.27,0-.47-.07q-1.56-.41-2.3-.41c-2.71,0-4.54,1.56-4.54,3.79,0,1.42.81,2.71,2.44,3.72l1.62,1.01c1.49.88,2.17,1.76,2.17,2.84,0,1.35-1.29,2.44-2.84,2.44-1.22,0-2.5-.68-3.72-1.96v3.11c1.96.54,2.5.68,3.59.68,2.98,0,5.28-2.03,5.28-4.67,0-1.69-.95-3.18-2.71-4.27l-1.96-1.29c-1.22-.74-1.62-1.22-1.62-1.96,0-1.08,1.02-1.89,2.37-1.89,1.49,0,2.64.68,3.52,2.17l-.14-3.59h0ZM193.35,91.89c-1.35-.41-1.56-.68-1.56-2.17v-10.63c0-1.42.2-1.69,1.56-2.17h-5.41c1.29.47,1.49.74,1.49,2.17v10.63c0,1.49-.2,1.76-1.49,2.17h5.41ZM152.13,81.81c-.47.95-1.08,1.29-2.57,1.29h-5.01v-4.67h5.41c1.56,0,2.23.48,2.84,1.89v-4.13c-.47.61-.74.75-1.49.75h-10.56c1.29.47,1.49.74,1.49,2.17v10.69c0,1.49-.2,1.62-1.49,2.1h12.39c.07-1.62.14-2.1.47-4.06-.68,1.69-1.63,2.37-3.45,2.37h-4.33c-.95,0-1.29-.34-1.29-1.56v-3.72h5.08c1.69,0,2.03.14,2.5,1.22v-4.33h0ZM176.83,78.56v10.49c0,.95.14,1.42,1.01,1.35h-.14c3.66,0,6.16-2.57,6.16-6.16s-2.51-5.69-6.36-5.69h-.68ZM177.44,91.89h-4.47c1.29-.47,1.49-.74,1.49-2.17v-10.63c0-1.42-.2-1.69-1.49-2.17h5.28c5.14,0,8.39,2.77,8.39,7.31,0,2.57-1.29,4.94-3.38,6.29-1.42.88-3.45,1.35-5.82,1.35h0ZM124.99,102.79c-.14-.2-.2-.27-.47-.34v-.07h1.49v.07c-.27,0-.34.07-.34.14s0,.2.07.27l.95,1.89.88-1.89c.07-.07.07-.14.07-.2,0-.14-.14-.2-.34-.2v-.07h1.22v.07c-.27,0-.34.14-.54.47l-1.08,2.17v1.22c0,.27.14.41.47.41v.14c-.27,0-.54-.07-.81-.07-.2,0-.47.07-.74.07v-.14c.34,0,.41-.14.41-.41v-1.22l-1.22-2.3h0ZM132.09,104.41c0-1.22.95-1.62,1.42-1.62.88,0,1.69.81,1.69,2.03,0,1.08-.68,1.62-1.42,1.62-1.08,0-1.69-1.02-1.69-2.03ZM131.48,104.62c0,1.22.74,2.3,2.17,2.3s2.23-1.22,2.23-2.37c0-1.02-.61-2.23-2.17-2.23-1.08,0-2.23.95-2.23,2.3ZM139.2,102.38h1.35v.07c-.14,0-.34.07-.34.27v2.71c0,.75.41,1.15.95,1.15.61,0,1.02-.41,1.02-1.15v-2.71c0-.2-.2-.27-.41-.27v-.07h1.42v.07c-.27,0-.34.07-.34.34v2.57c0,1.01-.61,1.56-1.69,1.56-1.02,0-1.62-.54-1.62-1.56v-2.57c0-.27-.07-.34-.34-.34v-.07h0ZM146.92,102.79c0-.2-.07-.27-.34-.27v-.14h2.03c.88,0,1.22.47,1.22,1.08,0,.68-.61,1.08-1.22,1.15l1.22,1.69c.27.2.41.41.61.41v.14c-.14,0-.27-.07-.34-.07-.2,0-.41.07-.54.07-.07-.07-.14-.14-.74-.95l-.88-1.15c-.07-.14-.14-.2-.14-.2,0-.07.07-.07.14-.07.74,0,1.22-.34,1.22-.95,0-.68-.54-.74-1.15-.74h-.41v3.66c0,.2.14.27.41.27v.14c-.14,0-.47-.07-.74-.07-.2,0-.54.07-.68.07v-.14c.27,0,.34-.07.34-.27v-3.66h0ZM158.42,102.79c0-.2-.07-.27-.34-.27v-.14h2.03c.88,0,1.35.54,1.35,1.29,0,.88-.68,1.42-1.62,1.42-.14,0-.47-.07-.61-.2q-.07,0-.07-.07l.07-.07h.47c.61,0,1.15-.34,1.15-1.02,0-.88-.68-1.01-1.56-1.01h-.2v3.72c0,.2.07.27.34.27v.14c-.14,0-.41-.07-.68-.07s-.54.07-.68.07v-.14c.27,0,.34-.07.34-.27v-3.65h0,0ZM165.39,104.82l.61-1.76.61,1.76h-1.22ZM163.97,106.85c.2,0,.47-.07.68-.07.13,0,.34.07.54.07v-.14c-.34,0-.41-.07-.41-.14,0-.14.07-.27.14-.47l.34-.95h1.49l.27.75c.14.41.2.47.2.61s-.07.2-.34.2v.14c.27,0,.54-.07.81-.07.2,0,.34.07.54.07v-.14c-.27,0-.27-.07-.47-.54l-1.15-3.05c-.14-.34-.2-.54-.27-.74h-.88v.07c.2.07.27.07.27.2,0,.07-.07.2-.07.27l-1.22,3.38c-.14.34-.2.41-.47.41v.14h0ZM171.69,102.79c0-.2-.07-.27-.34-.27v-.14h1.96c.95,0,1.29.47,1.29,1.08,0,.68-.61,1.08-1.29,1.15l1.29,1.69c.2.2.41.41.61.41v.14c-.14,0-.27-.07-.41-.07s-.34.07-.54.07c-.07-.07-.14-.14-.68-.95l-.88-1.15c-.14-.14-.14-.2-.14-.2,0-.07.07-.07.14-.07.68,0,1.22-.34,1.22-.95,0-.68-.61-.74-1.22-.74h-.34v3.66c0,.2.07.27.34.27v.14c-.14,0-.41-.07-.68-.07s-.54.07-.68.07v-.14c.27,0,.34-.07.34-.27v-3.66h0ZM179.41,102.79h-.61c-.41,0-.61.14-.75.74h-.13c.07-.41.13-.74.13-1.15h3.38c.07.41.07.74.14,1.15h-.14c-.14-.61-.34-.74-.68-.74h-.68v3.52c0,.27.07.41.47.41v.14c-.27,0-.61-.07-.81-.07s-.47.07-.74.07v-.14c.34,0,.41-.14.41-.41v-3.52h0ZM185.16,102.72c0-.14-.14-.2-.41-.27v-.07h1.15l2.3,3.18h.07v-2.51c0-.41-.14-.54-.54-.61v-.07h1.29v.07c-.27.07-.34.14-.34.27v4.13h-.41l-2.71-3.72v2.98c0,.47.14.54.47.61v.14c-.2,0-.41-.07-.61-.07s-.41.07-.68.07v-.14c.27,0,.41-.07.41-.27v-3.72h0ZM192.88,102.79c0-.2-.14-.27-.41-.27v-.14h3.38v1.01h-.14c-.07-.54-.34-.61-.61-.61h-1.56v1.49h.95c.27,0,.41,0,.47-.41h.14c-.07.2-.07.41-.07.61s0,.41.07.61h-.14c-.07-.41-.2-.41-.47-.41h-.95v1.69h1.42c.61,0,.88-.07.95-.74h.14c0,.41-.07.74-.07,1.15h-3.52v-.07c.27-.07.41-.14.41-.34v-3.59h0ZM199.78,102.79c0-.2-.07-.27-.34-.27v-.14h2.03c.88,0,1.22.47,1.22,1.08,0,.68-.61,1.08-1.29,1.15l1.29,1.69c.2.2.41.41.61.41v.14c-.14,0-.27-.07-.41-.07s-.34.07-.47.07c-.07-.07-.2-.14-.74-.95l-.88-1.15c-.07-.14-.14-.2-.14-.2,0-.07.07-.07.14-.07.75,0,1.22-.34,1.22-.95,0-.68-.61-.74-1.15-.74h-.41v3.66c0,.2.07.27.34.27v.14c-.14,0-.41-.07-.68-.07s-.54.07-.68.07v-.14c.27,0,.34-.07.34-.27v-3.66h0ZM98.59,111.45c0-.2-.07-.27-.34-.27v-.14h3.25c0,.34,0,.68.07,1.01h-.14c-.14-.54-.34-.61-.68-.61h-1.49v1.62h1.02c.27-.07.34-.07.41-.41h.14c0,.2-.07.41-.07.54,0,.2.07.41.07.61h-.14c0-.27-.14-.34-.41-.34h-1.02v1.62c0,.2.07.27.34.27v.14c-.14,0-.41-.07-.68-.07s-.54.07-.68.07v-.14c.27,0,.34-.07.34-.27v-3.65h0ZM103.19,113.08c0-1.29.95-1.69,1.42-1.69.88,0,1.69.88,1.69,2.03s-.68,1.69-1.42,1.69c-1.08,0-1.69-1.02-1.69-2.03h0ZM102.58,113.28c0,1.22.74,2.3,2.17,2.3s2.23-1.22,2.23-2.37c0-1.02-.61-2.23-2.17-2.23-1.08,0-2.23.95-2.23,2.3ZM108.67,111.45c0-.2-.07-.27-.34-.27v-.14h2.03c.88,0,1.22.47,1.22,1.08,0,.68-.61,1.08-1.29,1.15l1.29,1.62c.2.27.41.47.61.47v.14c-.14,0-.27-.07-.41-.07s-.34.07-.47.07c-.14-.07-.2-.14-.74-.95l-.88-1.22c-.07-.07-.14-.14-.14-.2,0,0,.07-.07.14-.07.68,0,1.22-.27,1.22-.88,0-.68-.61-.74-1.15-.74h-.41v3.66c0,.2.07.27.34.27v.14c-.14,0-.41-.07-.68-.07s-.54.07-.68.07v-.14c.27,0,.34-.07.34-.27v-3.66ZM116.05,111.38c0-.2-.14-.2-.41-.27v-.07h1.49v.07c-.34,0-.41.14-.41.27v3.66h1.29c.61,0,.81-.14.88-.81h.14c-.07.41-.07.81-.07,1.22h-3.32v-.07c.27-.07.41-.14.41-.34v-3.66ZM120.79,113.08c0-1.29.88-1.69,1.42-1.69.88,0,1.69.88,1.69,2.03s-.74,1.69-1.42,1.69c-1.08,0-1.69-1.02-1.69-2.03ZM120.11,113.28c0,1.22.81,2.3,2.17,2.3s2.23-1.22,2.23-2.37c0-1.02-.61-2.23-2.1-2.23-1.08,0-2.3.95-2.3,2.3ZM129.32,115.04c-.47.34-.81.54-1.42.54-1.08,0-2.1-.88-2.1-2.23,0-1.76,1.62-2.37,2.5-2.37.47,0,.95.07,1.42.27v1.01h-.14c-.14-.61-.81-.95-1.42-.95s-1.69.47-1.69,1.83c0,1.01.81,1.96,1.62,1.96.47,0,1.15-.2,1.15-.81v-.41c0-.2-.07-.27-.47-.34v-.07h1.42v.07c-.2,0-.34.07-.34.34l.07,1.62h-.41l-.2-.47h0ZM131.48,115.38c.27,0,.34-.07.34-.27v-3.72c0-.2-.07-.2-.34-.27v-.07h1.35v.07c-.27.07-.34.07-.34.27v3.72c0,.2.07.27.34.27v.14c-.14,0-.41-.07-.68-.07s-.54.07-.68.07v-.14ZM134.33,114.16c.2.68.68,1.02,1.35,1.02.54,0,1.08-.27,1.08-.88,0-.54-.34-.68-.81-.74-1.15-.27-1.83-.47-1.83-1.35,0-.68.74-1.22,1.83-1.22.27,0,.88.07,1.15.2,0,.34,0,.61.07.95h-.2c-.07-.61-.61-.81-1.08-.81-.81,0-1.15.34-1.15.81s.27.54,1.08.75c.88.14,1.56.34,1.56,1.29,0,.75-.61,1.42-1.89,1.42-.41,0-.81-.14-1.22-.34,0-.41-.07-.75-.07-1.08h.14ZM139.95,111.45h-.61c-.41,0-.61.14-.74.74h-.14c.07-.41.07-.74.14-1.15h3.38c.07.41.07.74.14,1.15h-.14c-.14-.61-.34-.74-.74-.74h-.61v3.52c0,.27.07.41.41.41l.07.14c-.27,0-.61-.07-.81-.07s-.47.07-.74.07v-.14c.34,0,.41-.14.41-.41v-3.52h0ZM143.19,115.38c.27,0,.34-.07.34-.27v-3.72c0-.2-.07-.2-.34-.27v-.07h1.35v.07c-.27.07-.34.07-.34.27v3.72c0,.2.07.27.34.27v.14c-.14,0-.41-.07-.68-.07s-.54.07-.68.07v-.14ZM149.49,115.04c-.41.34-.95.54-1.56.54-.88,0-2.1-.68-2.1-2.3s1.42-2.3,2.44-2.3c.34,0,.68,0,1.02.2,0,.34.07.68.07,1.01h-.07c-.14-.61-.74-.81-1.22-.81-.95,0-1.62.68-1.62,1.62,0,1.08.74,2.1,1.76,2.1.47,0,.88-.2,1.29-.47v.41h0ZM150.98,114.16c.14.68.68,1.02,1.35,1.02.47,0,1.08-.27,1.08-.88,0-.54-.34-.68-.81-.74-1.22-.27-1.83-.47-1.83-1.35,0-.68.68-1.22,1.83-1.22.27,0,.88.07,1.15.2-.07.34,0,.61,0,.95h-.13c-.07-.61-.68-.81-1.15-.81-.74,0-1.15.34-1.15.81s.27.54,1.15.75c.88.14,1.49.34,1.49,1.29,0,.75-.54,1.42-1.83,1.42-.47,0-.88-.14-1.29-.34v-1.08h.13ZM158.76,113.48l.61-1.76.68,1.76h-1.29ZM157.41,115.51c.2,0,.41-.07.61-.07s.34.07.54.07v-.14c-.27,0-.34-.07-.34-.14,0-.14,0-.34.07-.47l.34-.95h1.49l.34.75c.14.34.14.47.14.61s-.07.2-.27.2v.14c.27,0,.54-.07.81-.07.14,0,.34.07.47.07v-.14c-.2-.07-.27-.07-.41-.54l-1.22-3.05c-.14-.34-.2-.61-.2-.74h-.88v.07c.14,0,.2.07.2.2,0,.07,0,.14-.07.27l-1.22,3.32c-.14.41-.2.47-.41.47v.14h0ZM163.03,111.38c0-.2-.07-.2-.34-.27v-.07h1.08l2.37,3.18v-2.5c0-.47-.07-.54-.47-.61v-.07h1.28v.07c-.27.07-.34.07-.34.27v4.13h-.41l-2.71-3.72v2.98c0,.47.07.54.47.61v.14c-.2,0-.41-.07-.61-.07s-.47.07-.68.07v-.14c.27,0,.34-.07.34-.27v-3.72h0ZM169.39,111.45h.34c1.89,0,2.3,1.08,2.3,1.89,0,1.08-.95,1.69-1.62,1.69h-1.01v-3.59h0ZM168.37,111.05v.14c.27,0,.34.07.34.27v3.59c0,.2-.07.27-.34.34v.07h1.83c1.35,0,2.51-.88,2.51-2.23s-.95-2.17-2.71-2.17h-1.63s0,0,0,0ZM177.51,111.45h.34c1.89,0,2.3,1.08,2.3,1.89,0,1.08-.95,1.69-1.69,1.69h-.95v-3.59h0ZM176.5,111.05v.14c.27,0,.34.07.34.27v3.59c0,.2-.07.27-.34.34v.07h1.83c1.35,0,2.5-.88,2.5-2.23s-.95-2.17-2.71-2.17h-1.63s0,0,0,0ZM182.05,115.38c.27,0,.41-.07.41-.27v-3.72c0-.2-.14-.2-.41-.27v-.07h1.42v.07c-.27.07-.34.07-.34.27v3.72c0,.2.07.27.34.27v.14c-.14,0-.48-.07-.68-.07-.27,0-.54.07-.74.07v-.14ZM184.96,114.16c.14.68.68,1.02,1.35,1.02.47,0,1.08-.27,1.08-.88,0-.54-.34-.68-.81-.74-1.22-.27-1.83-.47-1.83-1.35,0-.68.68-1.22,1.83-1.22.27,0,.88.07,1.15.2v.95h-.14c-.07-.61-.68-.81-1.15-.81-.74,0-1.15.34-1.15.81s.27.54,1.15.75c.88.14,1.49.34,1.49,1.29,0,.75-.54,1.42-1.83,1.42-.47,0-.88-.14-1.29-.34v-1.08h.13ZM190.57,111.45h-.68c-.41,0-.54.14-.68.74h-.14c0-.41.07-.74.07-1.15h3.45c0,.41.07.74.07,1.15h-.14c-.07-.61-.27-.74-.68-.74h-.61v3.52c0,.27.07.41.41.41v.14c-.27,0-.54-.07-.74-.07-.27,0-.54.07-.81.07v-.14c.34,0,.48-.14.48-.41v-3.52h0ZM194.23,111.45c0-.2-.07-.27-.34-.27v-.14h1.96c.95,0,1.29.47,1.29,1.08,0,.68-.61,1.08-1.29,1.15l1.29,1.62c.2.27.41.47.61.47v.14c-.14,0-.27-.07-.41-.07s-.34.07-.54.07c-.07-.07-.14-.14-.68-.95l-.88-1.22c-.07-.07-.14-.14-.14-.2,0,0,.07-.07.14-.07.68,0,1.22-.27,1.22-.88,0-.68-.61-.74-1.22-.74h-.34v3.66c0,.2.07.27.34.27v.14c-.14,0-.41-.07-.68-.07s-.54.07-.68.07v-.14c.27,0,.34-.07.34-.27v-3.66ZM198.7,115.38c.27,0,.34-.07.34-.27v-3.72c0-.2-.07-.2-.34-.27v-.07h1.35v.07c-.27.07-.34.07-.34.27v3.72c0,.2.07.27.34.27v.14c-.14,0-.41-.07-.68-.07s-.54.07-.68.07v-.14h0ZM202.42,113.28h.75c.74,0,1.22.34,1.22.95,0,.54-.54.88-1.49.88h-.47v-1.83h0ZM201.74,115.04c0,.2-.07.27-.34.34v.07h1.76c1.29,0,1.89-.61,1.89-1.29,0-.74-.61-1.01-1.29-1.08v-.07c.54-.14.88-.41.88-.95,0-.88-.81-1.01-1.56-1.01h-1.69v.14c.27,0,.34.07.34.27v3.59h0,0ZM202.42,111.38h.68c.47,0,.95.2.95.74s-.41.81-1.22.81h-.41v-1.56h0ZM206.28,111.05h1.35v.07c-.14,0-.41.07-.41.27v2.71c0,.75.47,1.08,1.01,1.08.61,0,1.02-.34,1.02-1.08v-2.71c0-.2-.27-.27-.41-.27v-.07h1.42v.07c-.27,0-.34.07-.34.34v2.5c0,1.08-.61,1.62-1.69,1.62-1.01,0-1.69-.54-1.69-1.62v-2.5c0-.27,0-.34-.27-.34v-.07h0,0ZM212.84,111.45h-.61c-.41,0-.61.14-.75.74h-.14c.07-.41.07-.74.14-1.15h3.38c.07.41.07.74.14,1.15h-.14c-.14-.61-.34-.74-.74-.74h-.61v3.52c0,.27.07.41.41.41v.14c-.27,0-.54-.07-.75-.07s-.47.07-.74.07v-.14c.34,0,.41-.14.41-.41v-3.52h0,0ZM216.09,115.38c.27,0,.34-.07.34-.27v-3.72c0-.2-.07-.2-.34-.27v-.07h1.35v.07c-.27.07-.34.07-.34.27v3.72c0,.2.07.27.34.27v.14c-.14,0-.41-.07-.68-.07s-.54.07-.68.07v-.14h0ZM219.34,113.08c0-1.29.95-1.69,1.42-1.69.88,0,1.69.88,1.69,2.03s-.68,1.69-1.42,1.69c-1.08,0-1.69-1.02-1.69-2.03ZM218.73,113.28c0,1.22.75,2.3,2.17,2.3s2.23-1.22,2.23-2.37c0-1.02-.61-2.23-2.17-2.23-1.08,0-2.23.95-2.23,2.3ZM224.82,111.38c0-.2-.07-.2-.34-.27v-.07h1.08l2.37,3.18v-2.5c0-.47-.14-.54-.47-.61v-.07h1.29v.07c-.27.07-.41.07-.41.27v4.13h-.41l-2.64-3.72h-.07v2.98c0,.47.14.54.54.61v.14c-.2,0-.41-.07-.61-.07s-.47.07-.68.07v-.14c.27,0,.34-.07.34-.27v-3.72h0Z"/>
</svg>