<?xml version="1.0" encoding="UTF-8"?>
<svg id="Layer_1" data-name="Layer 1" xmlns="http://www.w3.org/2000/svg" viewBox="0 0 327 123">
  <defs>
    <style>
      .cls-1 {
        fill: #fff;
        stroke-width: 0px;
      }
    </style>
  </defs>
  <polygon class="cls-1" points="144.69 86.43 120.83 86.43 114.28 107.13 138.14 107.13 144.69 86.43"/>
  <g>
    <path class="cls-1" d="M164.63,94.44c-1.1,0-1.55.78-1.55,2.51,0,2.1.54,2.8,1.6,2.8.96,0,1.55-.74,1.55-2.53,0-2.13-.62-2.77-1.6-2.77Z"/>
    <path class="cls-1" d="M172.08,94.51c-1.08,0-1.57.95-1.57,2.47,0,1.97.63,2.61,1.63,2.61.6,0,1.15-.37,1.46-.92v-3.32h0c-.34-.51-.95-.84-1.52-.84Z"/>
    <path class="cls-1" d="M146.22,86.43l-6.55,20.7h72.15v-20.7h-65.6ZM159.46,100.65c-.5,0-.81-.15-1.07-.52-.21-.28-.26-.52-.26-1.19v-6.22c0-.97-.04-1.44-.15-1.97l1.32-.27c.13.45.13,1.11.13,1.96v6.18c0,.73.04.89.18,1.02.08.09.27.14.43.09l.22.77c-.26.11-.48.15-.78.15ZM164.65,100.72c-1.84,0-2.98-1.4-2.98-3.63s1.14-3.62,2.95-3.62c2.03,0,3.02,1.62,3.02,3.69,0,2.18-1.17,3.56-2.99,3.56ZM174.85,99.83c.02.26.02.59.02.74,0,2.07-1,2.82-3.04,2.82-.96,0-1.64-.18-2.47-.52.08-.32.21-.78.27-1.05.67.29,1.43.54,2.19.54,1.15,0,1.82-.41,1.82-1.59,0-.02,0-.32-.02-1-.49.59-1.1.88-1.78.88-1.38,0-2.7-1.08-2.7-3.41s.96-3.8,2.71-3.8c.71,0,1.37.3,1.86.95.01-.41.05-.6.13-.77h1.14c-.09.36-.16,1.1-.16,1.92v3.12c0,.36.01.8.03,1.18ZM178.25,100.53h-1.3v-6.82l1.3-.21v7.03ZM177.59,92.45c-.49,0-.88-.41-.88-.91s.4-.92.89-.92.91.4.91.92-.42.91-.92.91ZM182.18,100.72c-.84,0-1.77-.26-2.56-.73l.45-.91c.66.37,1.44.69,2.21.69s1.27-.44,1.27-1.11c0-.59-.36-.93-1.15-1.08l-.84-.16c-1.08-.22-1.67-.89-1.67-1.91,0-1.26,1-2.14,2.48-2.14.84,0,1.6.23,2.16.56l-.43.89c-.63-.32-1.14-.49-1.69-.49-.73,0-1.19.41-1.19,1.03,0,.49.25.77.97.93l.89.21c1.26.29,1.78,1.02,1.78,1.92,0,1.37-1.09,2.29-2.69,2.29ZM188.86,99.8c.23,0,.43-.04.64-.14l.15.77c-.38.19-.79.29-1.25.29s-.95-.14-1.16-.34c-.29-.26-.51-.4-.51-1.4v-4.42h-.82v-.89h.82c0-.54.01-1.23.08-1.75l1.3-.3c-.05.49-.13,1.35-.13,2.05h1.67l-.34.88h-1.35v4.14c0,.85.21,1.11.89,1.11ZM192.55,100.53h-1.3v-6.82l1.3-.21v7.03ZM191.89,92.45c-.49,0-.88-.41-.88-.91s.4-.92.89-.92.91.4.91.92-.42.91-.92.91ZM197.19,100.66c-.99,0-1.73-.34-2.21-1.03-.45-.64-.66-1.44-.66-2.48,0-1.55.49-2.44,1.15-3.03.51-.45,1.11-.7,1.78-.7.74,0,1.34.25,1.86.73l-.66.86c-.45-.4-.77-.54-1.21-.54-.52,0-.97.27-1.21.74-.23.46-.33,1.15-.33,2.1s.19,1.59.55,1.97c.25.26.59.41.99.41.51,0,1.02-.25,1.43-.72l.62.78c-.65.66-1.22.9-2.1.9ZM202.55,100.72c-.84,0-1.77-.26-2.56-.73l.45-.91c.66.37,1.44.69,2.21.69s1.27-.44,1.27-1.11c0-.59-.36-.93-1.15-1.08l-.84-.16c-1.08-.22-1.67-.89-1.67-1.91,0-1.26,1-2.14,2.48-2.14.84,0,1.61.23,2.16.56l-.43.89c-.63-.32-1.14-.49-1.69-.49-.73,0-1.19.41-1.19,1.03,0,.49.25.77.97.93l.89.21c1.26.29,1.78,1.02,1.78,1.92,0,1.37-1.09,2.29-2.69,2.29Z"/>
  </g>
  <path class="cls-1" d="M172.39,40.59h5.72l1.74-5.72h-5.72l4.18-13.1h-2.69c-4.21,4.52-7.8,7.81-10.78,9.87-2.98,2.06-6.49,3.84-10.51,5.34l-.93,3.62h6.35l-8.74,27.64c-.92,2.91-1.39,5.28-1.39,7.13,0,1.69.62,3.08,1.88,4.16,1.25,1.09,3.01,1.63,5.28,1.63,2.67,0,5.39-.9,8.16-2.69,2.77-1.8,5.31-4.61,7.62-8.43l-1.78-1.09c-2.03,2.8-3.81,4.76-5.33,5.88-.6.43-1.18.64-1.74.64-.37,0-1.24-.19-1.54-1.02-.16-.44.38-2.21.95-3.95l9.28-29.91Z"/>
  <path class="cls-1" d="M205.63,73.61c1.33-2.29,1.99-4.71,1.99-7.25,0-2.34-.56-4.55-1.68-6.63-1.12-2.08-4.3-5.88-9.54-11.4-1.49-1.56-2.46-2.78-2.88-3.67-.43-.89-.64-1.87-.64-2.92,0-1.22.5-2.28,1.49-3.15.99-.87,2.25-1.31,3.77-1.31,2.48,0,4.8,1.11,6.98,3.33,2.17,2.22,3.39,5.26,3.65,9.13h1.78l2.16-15.01h-1.78c-.8,1.09-1.84,1.63-3.12,1.63-.89,0-2.08-.17-3.57-.51-2.97-.74-5.47-1.12-7.52-1.12-4.69,0-8.33,1.17-10.91,3.51-2.59,2.34-3.88,5.26-3.88,8.77,0,2.09.43,3.95,1.28,5.57,1.22,2.22,3.77,5.4,7.66,9.53,2.82,3.01,4.62,5.22,5.4,6.65.78,1.42,1.17,2.89,1.17,4.41s-.6,2.9-1.78,4.02c-1.19,1.13-2.69,1.69-4.51,1.69-1.55,0-3.17-.5-4.86-1.49-1.68-.99-3.03-2.33-4.04-4-1.01-1.67-2.09-4.46-3.24-8.37h-1.66l-2.42,16.15h1.79c.56-.78,1.07-1.28,1.54-1.51.46-.22,1.11-.34,1.94-.34.93,0,2.32.24,4.17.73,2.81.74,5.18,1.12,7.1,1.12,2.85,0,5.59-.69,8.23-2.05,2.63-1.38,4.61-3.21,5.93-5.5Z"/>
  <path class="cls-1" d="M146.75,70.03l-1.78-1.09c-2.03,2.8-3.81,4.76-5.33,5.88-.6.43-1.18.64-1.74.64-.37,0-.7-.09-.99-.29-.3-.2-.53-.58-.51-.86.03-.53.35-2.08.93-3.82l11.46-35.88h-3.09l-17.44,2.68-.63,1.91c.74-.03,1.38-.05,1.92-.05,1.17,0,2.1.27,2.78.82s1.01,1.19,1.01,1.91c0,1.13-.37,2.82-1.09,5.08l-7.6,23.31c-.92,2.91-.98,4.15-.98,4.99,0,1.39.79,3.18,2.04,4.27,1.25,1.09,3.01,1.63,5.28,1.63,2.67,0,5.39-.9,8.16-2.69,2.78-1.8,5.31-4.61,7.62-8.43Z"/>
  <path class="cls-1" d="M142.71,15.87c2.06,0,3.8.71,5.22,2.12,1.41,1.41,2.12,3.1,2.12,5.06s-.72,3.69-2.14,5.09c-1.43,1.4-3.16,2.1-5.2,2.1s-3.71-.7-5.14-2.1c-1.43-1.4-2.15-3.09-2.15-5.09s.7-3.65,2.12-5.06c1.41-1.41,3.14-2.12,5.17-2.12"/>
</svg>