<?xml version="1.0" encoding="UTF-8"?>
<svg id="Layer_1" data-name="Layer 1" xmlns="http://www.w3.org/2000/svg" viewBox="0 0 327 123">
  <defs>
    <style>
      .cls-1 {
        fill: #fff;
        fill-rule: evenodd;
        stroke-width: 0px;
      }
    </style>
  </defs>
  <path class="cls-1" d="M235.21,86.71c-.63,1.23-2.49,3.44-5.72,3.44h-13.27c-3.21,0-5.11-2.24-5.68-3.41l-17.96-36.6c-1.76-3.45-5.46-4.55-8.55-4.55h-32.62c-3.01,0-4.76,1.93-4.76,4.77,0,3.02,1.96,4.77,4.81,4.77h22.44c9.56,0,17.47,5.79,17.47,17.51s-7.99,17.5-17.47,17.5h-28.84c-2.62,0-4.79-1.52-4.79-4.83v-6.3c0-1.07.72-1.59,1.6-1.59h25.65c2.66,0,4.79-1.6,4.79-4.77s-2.09-4.78-4.78-4.78h-24.13c-4.04,0-7.72-1.1-10.31-2.81-1.33,15.53-12.4,25.09-28.58,25.09h-36.08c-.88,0-1.59-.53-1.59-1.59v-31.82c0-1.06.7-1.59,1.57-1.59h12.7c3.39,0,4.89,2.17,4.89,4.75v15.94h0c0,1.06.7,1.58,1.57,1.59h11.02c8.67,0,15.88-5.26,15.88-15.91s-7.18-15.91-15.88-15.91h-30.2c-.86-.02-1.56-.54-1.56-1.6v-6.32c0-3.57,2.52-4.82,4.84-4.82h33c9.29,0,17.69,3.45,22.64,9.81,2.69-6.47,8.69-9.81,16.24-9.81h47.27c5.81,0,12.38,2,15.8,8.72l15.3,32.17c.16.33.47.48.86.48.36,0,.69-.13.85-.47,0,0,18.91-39.9,19.03-40.13.1-.21.49-.77,1.41-.77h14.55c.89,0,1.6.53,1.6,1.59,0,.27-.05.53-.16.78l-24.82,51.49Z"/>
</svg>