<?xml version="1.0" encoding="UTF-8"?>
<svg id="Layer_1" data-name="Layer 1" xmlns="http://www.w3.org/2000/svg" xmlns:xlink="http://www.w3.org/1999/xlink" viewBox="0 0 327 123">
  <defs>
    <style>
      .cls-1 {
        fill: none;
      }

      .cls-1, .cls-2 {
        stroke-width: 0px;
      }

      .cls-2 {
        fill: #fff;
      }

      .cls-3 {
        clip-path: url(#clippath);
      }
    </style>
    <clipPath id="clippath">
      <rect class="cls-1" x="32.91" y="43.08" width="261.17" height="36.84"/>
    </clipPath>
  </defs>
  <g class="cls-3">
    <g>
      <path class="cls-2" d="M95.8,52.18c-2.66,0-4.26,1.3-4.27,3.07-.02,1.97,2.07,2.78,4,3.24l2.21.55c3.54.84,6.91,2.7,6.92,6.78,0,4.15-3.29,6.97-8.94,6.97s-8.98-2.64-9.14-7.32h4.2c.18,2.48,2.24,3.67,4.92,3.67s4.69-1.35,4.7-3.36c0-1.83-1.69-2.63-4.24-3.26l-2.68-.69c-3.87-1-6.28-2.95-6.28-6.32,0-4.17,3.71-6.95,8.65-6.95s8.41,2.82,8.49,6.79h-4.11c-.21-1.99-1.89-3.18-4.42-3.18Z"/>
      <path class="cls-2" d="M115.97,58h-3.48v9.13c0,1.68.84,2.05,1.89,2.05.52,0,.99-.11,1.22-.16l.7,3.25c-.45.15-1.27.38-2.45.41-3.13.09-5.55-1.54-5.53-4.87v-9.82h-2.51v-3.22h2.51v-4.23h4.17v4.24h3.48v3.22h0Z"/>
      <path class="cls-2" d="M116.91,63.72c0-5.46,3.3-9.16,8.37-9.16,4.35,0,8.07,2.72,8.07,8.93v1.28h-12.31c.03,3.03,1.82,4.8,4.51,4.8,1.8,0,3.18-.79,3.74-2.28l3.88.43c-.74,3.07-3.57,5.08-7.69,5.08-5.32,0-8.57-3.53-8.57-9.08ZM129.36,61.95c-.02-2.41-1.63-4.15-4.02-4.15s-4.15,1.9-4.28,4.15h8.3Z"/>
      <path class="cls-2" d="M134.75,67.49c0-3.98,3.27-5,6.71-5.37,3.12-.33,4.38-.39,4.38-1.58v-.07c0-1.74-1.06-2.72-2.99-2.72-2.04,0-3.21,1.03-3.63,2.24l-3.88-.55c.92-3.22,3.78-4.88,7.49-4.88,3.37,0,7.18,1.41,7.18,6.08v11.83h-4.01v-2.43h-.14c-.76,1.48-2.42,2.78-5.19,2.78-3.37,0-5.91-1.85-5.91-5.33ZM145.84,66.12v-2.08c-.54.43-2.72.72-3.81.87-1.87.27-3.25.93-3.25,2.53s1.24,2.32,2.98,2.32c2.5,0,4.09-1.66,4.09-3.63Z"/>
      <path class="cls-2" d="M152.24,54.78h3.98v3h.21c.74-2.02,2.51-3.23,4.88-3.23s4.1,1.23,4.78,3.23h.19c.79-1.97,2.73-3.23,5.3-3.23,3.24,0,5.53,2.09,5.53,6.04v11.86h-4.18v-11.2c0-2.18-1.34-3.18-3.02-3.18-2.02,0-3.2,1.38-3.2,3.37v11.02h-4.08v-11.4c0-1.82-1.21-3-2.97-3s-3.24,1.47-3.24,3.65v10.75h-4.17v-17.68h0Z"/>
      <path class="cls-2" d="M181.02,48.89h2.15v21.62h11.23v1.94h-13.38v-23.56Z"/>
      <path class="cls-2" d="M194.93,63.7c0-5.42,3.19-9.15,7.78-9.15s7.78,3.74,7.78,9.15-3.2,9.12-7.78,9.12-7.78-3.74-7.78-9.12ZM208.43,63.7c0-3.95-2.04-7.3-5.71-7.3s-5.71,3.33-5.71,7.3,2.04,7.25,5.71,7.25,5.71-3.28,5.71-7.25Z"/>
      <path class="cls-2" d="M213.22,75.9l1.68-1.1c.75,1.35,2.19,2.8,5.22,2.8s5.23-1.53,5.23-4.82v-3.98h-.19c-.7,1.62-2.25,3.46-5.43,3.46-4.24,0-7.27-3.27-7.27-8.69s2.93-9.03,7.31-9.03c3.25,0,4.7,2.03,5.43,3.61h.21v-3.37h2v18.13c0,4.48-3.11,6.54-7.29,6.54-3.61,0-5.86-1.52-6.9-3.55ZM225.39,63.54c0-4.14-1.95-7.13-5.41-7.13s-5.46,3.16-5.46,7.13,1.95,6.85,5.46,6.85,5.41-2.59,5.41-6.85Z"/>
      <path class="cls-2" d="M230.28,50.28c0-.81.69-1.47,1.53-1.47s1.54.67,1.54,1.47-.7,1.47-1.54,1.47-1.53-.67-1.53-1.47ZM230.76,54.78h2.06v17.67h-2.06v-17.67Z"/>
      <path class="cls-2" d="M246.15,59.19c-.55-1.58-1.72-2.84-4.11-2.84s-4.09,1.26-4.09,3.05c0,1.53,1.02,2.42,3.23,2.97l2.66.66c2.96.73,4.44,2.3,4.44,4.66,0,3-2.66,5.14-6.56,5.14-3.46,0-5.8-1.6-6.42-4.54l1.97-.48c.49,2.09,2.01,3.19,4.41,3.19,2.71,0,4.47-1.37,4.47-3.21,0-1.42-.93-2.42-2.87-2.87l-2.89-.69c-3.07-.74-4.51-2.35-4.51-4.72,0-2.91,2.59-4.95,6.16-4.95,3.23,0,5.12,1.56,5.98,4.12l-1.87.51Z"/>
      <path class="cls-2" d="M257.94,56.57h-3.74v11.28c0,2.22,1.28,2.87,2.66,2.87.54,0,.91-.08,1.2-.16l.43,1.85c-.39.15-.96.31-1.82.31-2.26,0-4.54-1.5-4.54-4.4v-11.76h-2.64v-1.79h2.64v-4.23h2.05v4.24h3.74v1.78h.01Z"/>
      <path class="cls-2" d="M260.18,50.28c0-.81.69-1.47,1.53-1.47s1.54.67,1.54,1.47-.7,1.47-1.54,1.47-1.53-.67-1.53-1.47ZM260.66,54.78h2.06v17.67h-2.06v-17.67Z"/>
      <path class="cls-2" d="M265.13,63.7c0-5.32,3.16-9.15,7.78-9.15,3.54,0,6.28,2.21,6.76,5.49h-2.07c-.43-2.01-2.14-3.62-4.66-3.62-3.39,0-5.75,2.95-5.75,7.23s2.29,7.32,5.75,7.32c2.35,0,4.2-1.4,4.67-3.65h2.08c-.47,3.2-3.06,5.53-6.75,5.53-4.75,0-7.81-3.86-7.81-9.13Z"/>
      <path class="cls-2" d="M291.95,59.19c-.55-1.58-1.73-2.84-4.11-2.84s-4.09,1.26-4.09,3.05c0,1.53,1.02,2.42,3.22,2.97l2.66.66c2.96.73,4.44,2.3,4.44,4.66,0,3-2.66,5.14-6.56,5.14-3.46,0-5.8-1.6-6.42-4.54l1.97-.48c.49,2.09,2,3.19,4.41,3.19,2.71,0,4.47-1.37,4.47-3.21,0-1.42-.93-2.42-2.87-2.87l-2.89-.69c-3.07-.74-4.51-2.35-4.51-4.72,0-2.91,2.59-4.95,6.16-4.95,3.23,0,5.12,1.56,5.98,4.12l-1.87.51Z"/>
      <path class="cls-2" d="M48.07,67.64l25.48-24.56h-24.56l-14.11,13.61c-4.13,3.98-1.31,10.95,4.42,10.95h8.77Z"/>
      <path class="cls-2" d="M67.56,55.36l-25.48,24.56h2.28l25.49-24.56h-2.29Z"/>
      <path class="cls-2" d="M72.05,55.36l-25.49,24.56h2.29l25.14-24.24c-.6-.2-1.26-.31-1.95-.32Z"/>
      <path class="cls-2" d="M75.46,56.4l-24.4,23.52h2.29l23.31-22.48c-.35-.38-.76-.74-1.2-1.04Z"/>
      <path class="cls-2" d="M77.54,58.72l-21.99,21.2h2.29l20.3-19.58c-.13-.57-.33-1.11-.6-1.62Z"/>
      <path class="cls-2" d="M60.03,79.92h2.19l14.12-13.61c1.2-1.16,1.81-2.57,1.94-3.98l-18.25,17.59Z"/>
      <path class="cls-2" d="M63.15,55.36l-25.49,24.56h2.22l25.49-24.56h-2.22Z"/>
    </g>
  </g>
</svg>