<?xml version="1.0" encoding="UTF-8"?>
<svg id="Layer_1" data-name="Layer 1" xmlns="http://www.w3.org/2000/svg" viewBox="0 0 327 123">
  <defs>
    <style>
      .cls-1 {
        fill: #fff;
        fill-rule: evenodd;
        stroke-width: 0px;
      }
    </style>
  </defs>
  <g id="Layer_1-2" data-name="Layer_1">
    <g id="_746118160" data-name=" 746118160">
      <path class="cls-1" d="M72.36,41.62l-8.98,12.2h48.96c2.47,0,2.44.94,1.23,2.58-1.23,1.66-3.28,4.56-4.54,6.25-.63.86-1.78,2.42,2.02,2.42h20.02s3.23-4.39,5.93-8.06c3.68-4.99.32-15.39-12.84-15.39h-51.81Z"/>
      <path class="cls-1" d="M59.75,81.38l18.04-24.52s20,0,22.39,0,2.44.94,1.23,2.58c-1.23,1.66-3.32,4.53-4.57,6.22-.64.86-1.78,2.42,2.02,2.42h30c-2.49,3.42-10.59,13.3-25.12,13.3h-44Z"/>
      <path class="cls-1" d="M163.08,68.08l-9.78,13.3h-25.81s9.78-13.3,9.79-13.3c0,0,25.81,0,25.81,0Z"/>
      <polygon class="cls-1" points="202.62 65.07 139.49 65.07 156.75 41.62 182.55 41.62 172.66 55.06 184.18 55.06 194.07 41.62 219.87 41.62 202.62 65.07"/>
      <path class="cls-1" d="M200.4,68.08l-9.79,13.3h-25.8s9.78-13.3,9.79-13.3h25.8Z"/>
      <polygon class="cls-1" points="22.92 73.32 60.94 73.32 58.86 76.15 22.92 76.15 22.92 73.32"/>
      <polygon class="cls-1" points="22.92 68.08 64.8 68.08 62.72 70.9 22.92 70.9 22.92 68.08"/>
      <polygon class="cls-1" points="22.92 78.57 57.08 78.57 55.01 81.38 22.92 81.38 22.92 78.57"/>
      <polygon class="cls-1" points="304.08 76.15 266.2 76.15 268.28 73.32 304.08 73.32 304.08 76.15"/>
      <polygon class="cls-1" points="304.08 81.38 262.35 81.38 264.42 78.57 304.08 78.57 304.08 81.38"/>
      <polygon class="cls-1" points="272.14 68.08 304.08 68.08 304.08 70.9 270.07 70.9 272.14 68.08"/>
      <path class="cls-1" d="M255.61,41.62l-17.26,23.45h-27.34s17.26-23.45,17.27-23.45h27.33,0Z"/>
      <path class="cls-1" d="M208.79,68.08s-1.89,2.58-2.8,3.82c-3.24,4.38-.38,9.48,10.2,9.48h41.44l9.79-13.3h-58.62,0Z"/>
    </g>
  </g>
</svg>