<?xml version="1.0" encoding="UTF-8"?>
<svg id="Layer_1" data-name="Layer 1" xmlns="http://www.w3.org/2000/svg" viewBox="0 0 327 123">
  <defs>
    <style>
      .cls-1 {
        fill: #fff;
        stroke-width: 0px;
      }
    </style>
  </defs>
  <path class="cls-1" d="M276.25,84.68c0,1.4,1.15,2.48,2.55,2.48s2.55-1.08,2.55-2.48-1.08-2.48-2.55-2.48-2.55,1.08-2.55,2.48ZM278.8,82.71c1.08,0,1.91.89,1.91,1.97s-.83,1.97-1.91,1.97-1.91-.89-1.91-1.97.83-1.97,1.91-1.97Z"/>
  <path class="cls-1" d="M278.42,85h.25c.32,0,.45.13.51.38.06.32.13.51.19.57h.64c-.06-.06-.13-.25-.19-.64-.06-.32-.19-.51-.45-.57h0c.32-.06.51-.32.51-.57s-.13-.45-.25-.57c-.19-.13-.38-.19-.83-.19-.38,0-.7,0-.96.06v2.48h.57v-.96h0ZM278.42,83.85h.32c.38,0,.51.13.51.38s-.25.38-.57.38h-.25v-.76Z"/>
  <path class="cls-1" d="M248.1,87.93c12.99-3.57,14.52-13.76,14.52-26.43s-1.53-22.8-14.52-26.43c7.51,5.29,9.11,14.84,9.11,26.43,0,11.59-1.59,21.14-9.11,26.43Z"/>
  <path class="cls-1" d="M262.81,87.93c12.99-3.57,14.52-13.76,14.52-26.43s-1.53-22.8-14.52-26.43c7.51,5.29,9.11,14.84,9.11,26.43s-1.59,21.14-9.11,26.43Z"/>
  <path class="cls-1" d="M70.04,88.06h17.77c.83,0,1.53-.7,1.53-1.53v-8.98c0-.83-.7-1.53-1.53-1.53h-17.77c-7.45,0-9.36-.96-9.87-8.85h26.62c.83,0,1.53-.7,1.53-1.53v-8.6c0-.83-.7-1.53-1.53-1.53h-26.56c.51-7.51,2.55-8.41,9.81-8.41h17.77c.83,0,1.53-.7,1.53-1.53v-9.11c0-.83-.7-1.53-1.53-1.53h-17.77c-24.84,0-24.39,11.78-24.39,26.56s-.45,26.56,24.39,26.56Z"/>
  <path class="cls-1" d="M117.74,88.06c20.12,0,23.69-7.77,24.26-18.53.06-.89-.64-1.66-1.53-1.66h-11.53c-.76,0-1.46.57-1.53,1.34-.7,5.92-2.99,6.75-9.68,6.75-8.92,0-9.93-1.4-10-14.46,0-13.06,1.08-14.46,10-14.46,6.56,0,8.85.76,9.62,6.43.13.76.76,1.34,1.53,1.34h11.53c.89,0,1.59-.76,1.53-1.66-.64-10.64-4.33-18.21-24.26-18.21-24.84,0-24.39,11.78-24.39,26.56s-.38,26.56,24.45,26.56Z"/>
  <path class="cls-1" d="M181.81,35.07c-1.4,0-2.61,1.15-2.61,2.61v17.07h-18.4v-17.13c0-1.4-1.15-2.61-2.61-2.61h-9.04c-1.4,0-2.61,1.15-2.61,2.61v47.76c0,1.4,1.15,2.61,2.61,2.61h9.04c1.4,0,2.61-1.15,2.61-2.61v-17.26h18.4v17.32c0,1.4,1.15,2.61,2.61,2.61h9.04c1.4,0,2.61-1.15,2.61-2.61v-47.76c0-1.4-1.15-2.61-2.61-2.61,0,0-9.04,0-9.04,0Z"/>
  <path class="cls-1" d="M222.63,88.06c24.84,0,24.39-11.78,24.39-26.56s.45-26.56-24.39-26.56-24.39,11.78-24.39,26.56c0,14.84-.45,26.56,24.39,26.56ZM222.63,47.04c8.92,0,10,1.4,10,14.46s-1.08,14.46-10,14.46-10-1.4-10-14.46c0-13.06,1.08-14.46,10-14.46Z"/>
</svg>