<?xml version="1.0" encoding="UTF-8"?>
<svg id="Layer_1" data-name="Layer 1" xmlns="http://www.w3.org/2000/svg" viewBox="0 0 327 123">
  <defs>
    <style>
      .cls-1 {
        fill: #fff;
        fill-rule: evenodd;
        stroke-width: 0px;
      }
    </style>
  </defs>
  <polygon class="cls-1" points="22.13 70.17 245.43 70.85 245.43 70.85 21.12 72.36 22.13 70.17 22.13 70.17"/>
  <path class="cls-1" d="M248.62,45.59c1.68,0,2.86-1.18,2.86-2.86,0-1.52-1.18-2.69-2.86-2.69-1.52,0-2.69,1.18-2.69,2.69,0,1.68,1.18,2.86,2.69,2.86h0ZM248.62,44.91c-1.18,0-2.02-.84-2.02-2.19,0-1.18.84-2.02,2.02-2.02s2.19.84,2.19,2.02c0,1.35-1.01,2.19-2.19,2.19h0ZM249.3,43.06c.34-.17.67-.34.67-.84,0-.67-.34-.84-1.01-.84h-1.52v2.86h.67v-1.18h.51l.67,1.18h.67l-.67-1.18h0ZM248.12,42.39v-.51h.67c.34,0,.51,0,.51.34,0,.17-.17.17-.51.17h-.67Z"/>
  <polygon class="cls-1" points="296.62 85.33 280.79 74.89 264.96 85.33 270.18 67.14 255.19 55.35 274.22 54.51 280.79 36.83 287.36 54.51 306.22 55.35 291.4 67.14 296.62 85.33 296.62 85.33"/>
  <path class="cls-1" d="M271.86,74.55c-7.41-.17-11.45-2.19-13.98-6.74-2.69-4.55,2.36-10.44,2.36-10.44,0,0-7.41,7.07-3.37,12.97,4.04,6.06,15.49,7.07,23.74,4.88,8.42-2.02,17.51-6.4,20.71-10.61-8.76,6.9-22.06,10.27-29.47,9.94h0Z"/>
  <polygon class="cls-1" points="270.18 67.14 255.19 55.35 274.22 54.51 270.18 67.14 270.18 67.14"/>
  <polygon class="cls-1" points="270.18 67.14 255.19 55.35 274.22 54.51 270.18 67.14 270.18 67.14"/>
  <path class="cls-1" d="M304.2,57.21c1.01-2.86-1.68-9.6-10.1-10.1-21.05-1.52-30.99,9.94-30.99,9.94,0,0,12.97-10.27,27.62-8.42,9.43,1.35,10.61,4.21,10.61,4.21,0,0,3.54,4.04-1.01,9.77-3.71,4.72,2.86-2.53,3.87-5.39h0Z"/>
  <polygon class="cls-1" points="274.22 54.51 280.79 36.83 287.36 54.51 274.22 54.51 274.22 54.51"/>
  <polygon class="cls-1" points="53.45 66.13 70.12 66.13 71.3 58.22 63.72 58.22 66.42 41.38 57.49 41.38 53.45 66.13 53.45 66.13"/>
  <path class="cls-1" d="M81.07,63.1h6.74l.34,3.03h9.6l-5.05-24.75h-9.94l-12.46,24.75h9.6l1.18-3.03h0ZM83.6,57.21l2.86-7.58h.34v3.2l.34,4.38h-3.54Z"/>
  <path class="cls-1" d="M99.42,66.13h8.59l1.35-8.08c.17-1.52.17-3.2.17-4.88h.34l5.73,12.97h8.59l4.04-24.75h-8.59l-1.18,7.41c-.34,2.19-.34,4.21-.34,6.4h-.17l-5.89-13.81h-8.76l-3.87,24.75h0Z"/>
  <path class="cls-1" d="M128.22,66.13h11.45c7.24,0,13.13-4.72,14.31-11.96,1.52-9.09-4.38-12.8-12.63-12.8h-9.26l-3.87,24.75h0ZM140.01,49.12h.51c3.2,0,5.05,1.52,4.55,5.05-.51,3.2-3.03,4.55-6.06,4.55h-.51l1.52-9.6h0Z"/>
  <path class="cls-1" d="M154.32,64.28c2.53,1.35,6.06,2.36,9.26,2.36,5.22,0,11.11-3.03,12.12-8.92.67-4.21-1.85-6.23-5.56-7.07l-1.85-.51c-.67-.17-1.85-.34-1.68-1.18.17-1.01,1.35-1.35,2.19-1.35,1.85,0,3.54.84,4.88,1.85l3.37-6.23c-2.19-1.52-4.55-2.19-7.41-2.19-5.39,0-11.28,3.2-12.29,9.09-.51,3.87,2.02,5.89,5.56,6.57l1.68.34c.84.17,2.02.34,1.85,1.35-.17,1.18-1.68,1.52-2.53,1.52-2.19,0-3.87-1.01-5.39-2.19l-.34-.34-3.87,6.9h0Z"/>
  <polygon class="cls-1" points="178.07 49.46 182.95 49.29 180.26 66.13 189.35 66.13 192.04 49.29 196.93 49.46 198.27 41.38 179.25 41.38 178.07 49.46 178.07 49.46"/>
  <path class="cls-1" d="M202.48,63.1h6.9l.34,3.03h9.43l-4.88-24.75h-9.94l-12.63,24.75h9.6l1.18-3.03h0ZM205.01,57.21l2.86-7.58h.34c0,1.01,0,2.19.17,3.2l.34,4.38h-3.7Z"/>
  <path class="cls-1" d="M221.01,66.13h8.76l1.35-7.91h.17l2.69,7.91h10.27l-4.04-8.08c-.34-.67-.84-1.01-1.35-1.35l.17-.34c3.54-1.01,5.22-2.69,5.73-6.4,1.01-6.23-3.37-8.59-8.92-8.59h-10.95l-3.87,24.75h0ZM232.63,48.11h.67c1.68,0,2.86.34,2.69,2.19-.34,1.85-1.85,2.02-3.37,2.02h-.67l.67-4.21h0Z"/>
  <path class="cls-1" d="M24.49,83.98c0,1.01-.34,1.85-1.18,1.85-1.01,0-1.35-.84-1.35-2.19s.34-2.02,1.18-2.02c.67,0,1.35.84,1.35,2.36h0ZM20.78,83.81c0,1.18.67,2.36,2.36,2.36,1.18,0,2.53-.84,2.53-2.53,0-1.18-.67-2.36-2.53-2.36-1.35,0-2.36,1.01-2.36,2.53h0Z"/>
  <path class="cls-1" d="M33.92,82.13v-.84h0c-.67.17-1.52.34-1.68.34h0v.34h.67v3.54c0,.17-.34.17-.67.17h0v.34h2.53v-.34h0c-.34,0-.67,0-.67-.17-.17,0-.17-.34-.17-1.18v-1.52c0-.51.67-.84,1.18-.84,1.01,0,1.01.84,1.01,1.68v2.36h1.68v-.34h0c-.51,0-.67,0-.67-.34v-2.53c0-.84-.34-1.51-1.52-1.51h-.67l-1.01.84h0Z"/>
  <path class="cls-1" d="M52.61,82.13v.17c.34-.17.67-.17.84-.17,0,.84-.17,1.68-.17,2.69s.51,1.35,1.35,1.35c.17,0,.34,0,.51-.17.17-.17.34-.34.67-.51l-.17-.17s-.34.17-.51.17c-.51,0-.67-.17-.67-1.01v-2.36h1.18l.17-.51h-1.35v-2.02h0c-.34.17-.67.34-1.01.51v1.52c-.34.17-.51.17-.84.34h0v.17h0Z"/>
  <path class="cls-1" d="M63.89,82.13v-3.37l-.17-.17c-.67.34-1.52.51-1.68.51h0v.34h.67c.17,0,.17.17.17,1.01v3.87c0,.84,0,1.18-.17,1.18,0,.17-.17.17-.67.17h0v.34h2.53v-.34h0c-.34,0-.67,0-.67-.17v-2.69c0-.51.51-.84,1.18-.84.84,0,.84.84.84,1.68v2.36h1.68v-.34h0c-.51,0-.67,0-.67-.34,0-1.01.17-1.85.17-2.53,0-.84-.51-1.51-1.68-1.51h-.67l-.84.84h0Z"/>
  <path class="cls-1" d="M76.52,81.62c.84,0,1.01.67,1.01,1.52-.17.17-.51.17-.84.17s-.67,0-1.35-.17c0-.34.17-1.52,1.18-1.52h0ZM78.37,85.16c-.51.34-.84.34-1.18.34-1.18,0-1.68-.84-1.68-1.85h1.52c.51,0,1.01,0,1.52-.17h.17c0-.67,0-2.19-2.02-2.19-.51,0-1.01.17-1.68.67-.51.34-.67.84-.67,1.85,0,1.35.84,2.36,2.36,2.36.67,0,1.35-.34,1.68-.51,0-.17.17-.34.17-.51h-.17Z"/>
  <path class="cls-1" d="M93.7,81.96h.84v3.54c-.17.17-.34.17-.84.17h0v.34h2.86v-.34h0c-.51,0-.84,0-.84-.17-.17,0-.17-.34-.17-1.18v-1.18c0-.51.51-.84,1.01-.84s.51,0,.67.34h.17c0-.51,0-1.01.17-1.35h-.51c-.51,0-.84.17-1.18.67q-.17.17-.34.34v-1.01h-.17c-.51.17-1.35.34-1.68.34h0v.34h0Z"/>
  <path class="cls-1" d="M107.68,83.98c0,1.01-.34,1.85-1.35,1.85-.84,0-1.18-.84-1.18-2.19s.34-2.02,1.18-2.02c.67,0,1.35.84,1.35,2.36h0ZM103.97,83.81c0,1.18.67,2.36,2.36,2.36,1.18,0,2.36-.84,2.36-2.53,0-1.18-.51-2.36-2.36-2.36-1.52,0-2.36,1.01-2.36,2.53h0Z"/>
  <path class="cls-1" d="M115.93,82.63h.34l.17-.51c.17,0,.51-.17.84-.17,1.01,0,1.18.84,1.18,1.18-2.69.67-2.86.84-2.86,1.85,0,.67.34,1.18,1.18,1.18.34,0,.51,0,.67-.17,0,0,.67-.51,1.01-.84,0,.34,0,.51-.17.84h1.68v-.34h0c-.34,0-.51,0-.51-.17v-2.86c0-1.01-.84-1.35-1.85-1.35-.34,0-.67,0-1.68.67v.67h0ZM118.45,84.82c-.51.34-.84.67-1.18.67s-.67-.34-.67-.84.17-.67,1.85-1.18v1.35h0Z"/>
  <path class="cls-1" d="M129.74,79.27v.17h.67c.17,0,.17.17.17,1.01v1.18c-.34-.17-.67-.34-1.18-.34s-.67,0-1.85.67c-.51.51-.67,1.01-.67,1.85,0,1.68.84,2.36,1.85,2.36.34,0,.51,0,.67-.17.34-.17.67-.51,1.18-.84,0,.34-.17.67-.17.84h1.85v-.34h0c-.34,0-.67,0-.67-.17v-6.74l-.17-.17c-.67.34-1.52.51-1.68.51h0v.17h0ZM130.58,83.98c0,1.01-.84,1.52-1.35,1.52-.67,0-1.35-.84-1.35-2.02s.51-1.68,1.18-1.68,1.18.34,1.35.67c0,.34.17.84.17,1.52h0Z"/>
  <path class="cls-1" d="M146.91,82.13l.17.17c.17-.17.51-.17.67-.17v2.69c0,1.01.34,1.35,1.18,1.35.17,0,.34,0,.67-.17.17-.17.34-.34.51-.51v-.17c-.17,0-.34.17-.67.17s-.67-.17-.67-1.01v-2.36h1.35v-.51h-1.35c0-.67,0-1.35.17-2.02h-.17c-.34.17-.67.34-1.01.51v1.52c-.17.17-.51.17-.67.34h-.17v.17h0Z"/>
  <path class="cls-1" d="M160.22,83.98c0,1.01-.34,1.85-1.18,1.85s-1.35-.84-1.35-2.19.34-2.02,1.18-2.02,1.35.84,1.35,2.36h0ZM156.51,83.81c0,1.18.67,2.36,2.36,2.36,1.18,0,2.53-.84,2.53-2.53,0-1.18-.67-2.36-2.36-2.36-1.52,0-2.53,1.01-2.53,2.53h0Z"/>
  <path class="cls-1" d="M176.55,86c.34,0,1.01.17,1.52.17,1.18,0,2.19-.67,2.19-1.68,0-.84-.51-1.18-1.35-1.35-1.18-.17-1.52-.17-1.52-.67s.51-.84,1.01-.84,1.01.34,1.01.34c0,.17.17.34.17.67h.34v-1.18c-.34-.17-1.18-.17-1.52-.17-1.18,0-1.85.67-1.85,1.51,0,1.85,2.86.67,2.86,2.02,0,.67-.51,1.01-1.01,1.01-.67,0-1.18-.51-1.35-.51v-.84h-.34c0,.51-.17,1.01-.17,1.35v.17h0Z"/>
  <path class="cls-1" d="M189.85,81.96h.67c.17.17.17.34.17,1.18q0,1.68-.17,1.85c-.17.17-.67.34-1.01.34-.67,0-.84-.34-.84-1.18v-2.86h-.17c-.67.17-1.52.34-1.68.34h0v.34h.67c.17.17.17.34.17,1.18v1.52c0,1.01.51,1.52,1.35,1.52.51,0,.67,0,.84-.17l.84-.84v.84h1.68v-.34h0c-.34,0-.51,0-.67-.17v-4.21h-.17c-.67.17-1.52.34-1.52.34h-.17v.34h0Z"/>
  <path class="cls-1" d="M202.99,85.16c-.34.34-.84.34-1.18.34-1.01,0-1.68-.84-1.68-2.36,0-.84.51-1.35,1.18-1.35.51,0,1.01.34,1.01.51.17,0,.17.51.17.51v.17h.34v-.17c0-.34,0-.84.17-1.35h0c-.17-.17-.67-.17-1.18-.17s-.67,0-1.85.67c-.51.34-.84.84-.84,1.85,0,1.52,1.01,2.36,2.19,2.36.51,0,1.18-.17,1.52-.34,0-.17.17-.34.17-.51v-.17h0Z"/>
  <path class="cls-1" d="M213.6,85.16c-.34.34-.84.34-1.18.34-1.01,0-1.68-.84-1.68-2.36,0-.84.51-1.35,1.18-1.35.51,0,1.01.34,1.01.51.17,0,.17.51.17.51v.17h.34v-.17c0-.34,0-.84.17-1.35h0c-.17-.17-.67-.17-1.18-.17s-.67,0-1.85.67c-.51.34-.84.84-.84,1.85,0,1.52,1.01,2.36,2.19,2.36.51,0,1.18-.17,1.52-.34,0-.17.17-.34.17-.51v-.17h0Z"/>
  <path class="cls-1" d="M222.52,81.62c.84,0,1.01.67,1.01,1.52-.17.17-.51.17-.84.17s-.67,0-1.18-.17c0-.34,0-1.52,1.01-1.52h0ZM224.38,85.16c-.51.34-.84.34-1.18.34-1.18,0-1.68-.84-1.68-1.85h1.52c.51,0,1.01,0,1.68-.17h0c0-.67,0-2.19-2.02-2.19-.51,0-1.01.17-1.68.67-.34.34-.67.84-.67,1.85,0,1.35.84,2.36,2.36,2.36.67,0,1.35-.34,1.68-.51,0-.17.17-.34.17-.51h-.17Z"/>
  <path class="cls-1" d="M231.45,86c.34,0,1.01.17,1.52.17,1.18,0,2.19-.67,2.19-1.68,0-.84-.51-1.18-1.35-1.35-1.18-.17-1.35-.17-1.35-.67s.34-.84.84-.84,1.01.34,1.01.34c0,.17.17.34.17.67h.34v-1.18c-.34-.17-1.18-.17-1.52-.17-1.18,0-1.85.67-1.85,1.51,0,1.85,2.86.67,2.86,2.02,0,.67-.51,1.01-1.01,1.01-.67,0-1.18-.51-1.35-.51v-.84h-.34c0,.51-.17,1.01-.17,1.35v.17h0Z"/>
  <path class="cls-1" d="M241.89,86c.34,0,1.01.17,1.52.17,1.18,0,2.19-.67,2.19-1.68,0-.84-.51-1.18-1.35-1.35-1.18-.17-1.52-.17-1.52-.67s.5-.84,1.01-.84,1.01.34,1.01.34v.67h.51v-1.18c-.34-.17-1.18-.17-1.52-.17-1.18,0-1.85.67-1.85,1.51,0,1.85,2.86.67,2.86,2.02,0,.67-.51,1.01-1.18,1.01-.51,0-1.01-.51-1.18-.51v-.84h-.34c0,.51-.17,1.01-.17,1.35v.17h0Z"/>
  <path class="cls-1" d="M304.53,78.42h-1.35l-.84,2.19-.84-2.19h-1.35v3.87h.84v-3.2h0l1.01,3.2h.51l1.18-3.2h0v3.2h.84v-3.87h0ZM299.65,78.42h-3.2v.67h1.18v3.2h.84v-3.2h1.18v-.67h0Z"/>
</svg>