<?xml version="1.0" encoding="UTF-8"?>
<svg id="Layer_1" data-name="Layer 1" xmlns="http://www.w3.org/2000/svg" viewBox="0 0 327 123">
  <defs>
    <style>
      .cls-1 {
        fill: #fff;
        stroke-width: 0px;
      }
    </style>
  </defs>
  <polygon class="cls-1" points="35.25 43.93 41.5 40.32 41.5 55.35 42.93 56.17 44.35 55.35 44.35 40.32 50.6 43.93 52.03 41.45 42.93 36.2 33.82 41.45 35.25 43.93"/>
  <polygon class="cls-1" points="31.54 76.94 25.29 73.33 38.31 65.82 38.31 64.17 36.88 63.34 23.87 70.86 23.87 63.64 21.01 63.64 21.01 74.15 30.12 79.41 31.54 76.94"/>
  <path class="cls-1" d="M42.93,27.96l-29.06,16.78v33.53l29.06,16.77,29.06-16.77v-33.53l-29.06-16.78ZM69.12,76.62l-26.19,15.15-26.2-15.15v-30.25l26.2-15.13,26.19,15.13v30.25Z"/>
  <polygon class="cls-1" points="54.31 46.07 60.56 49.67 42.93 59.86 25.29 49.67 31.54 46.07 30.12 43.59 21.01 48.85 21.01 59.36 23.87 59.36 23.87 52.15 41.5 62.33 41.5 82.69 35.25 79.08 33.82 81.55 42.93 86.81 52.03 81.55 50.6 79.08 44.35 82.69 44.35 62.33 61.99 52.15 61.99 59.36 64.84 59.36 64.84 48.85 55.74 43.59 54.31 46.07"/>
  <polygon class="cls-1" points="61.99 63.64 61.99 70.86 48.97 63.34 47.54 64.17 47.54 65.82 60.56 73.33 54.31 76.94 55.74 79.41 64.84 74.15 64.84 63.64 61.99 63.64"/>
  <path class="cls-1" d="M69.5,82.27h.79c.49,0,.74.2.74.6.01.16-.05.31-.16.42-.11.09-.24.14-.38.16l.6.93h-.34l-.57-.91h-.34v.91h-.32l-.02-2.11ZM69.81,83.22h.54c.06,0,.12-.02.18-.04.05-.02.09-.06.12-.11.04-.06.05-.13.05-.2,0-.06-.01-.12-.04-.17-.03-.04-.07-.07-.11-.1-.05-.02-.1-.03-.15-.04-.05,0-.11,0-.16,0h-.42v.66Z"/>
  <path class="cls-1" d="M70.18,85.46c-1.18,0-2.13-.96-2.13-2.14,0-1.18.96-2.13,2.14-2.13,1.18,0,2.13.96,2.13,2.13,0,1.18-.96,2.13-2.14,2.13ZM70.18,81.56c-.98,0-1.77.8-1.77,1.78,0,.98.8,1.77,1.78,1.77.98,0,1.77-.8,1.77-1.77s-.79-1.77-1.77-1.77c0,0,0,0,0,0Z"/>
  <path class="cls-1" d="M103.99,70.04c-1.01,1.35-2.75,3.21-4.91,3.21h-4.84c-.85-.02-1.68-.26-2.4-.7-1.08-.76-2.03-1.69-2.83-2.75-.42-.66-.64-1.43-.62-2.21v-12.19c-.02-.77.2-1.52.62-2.17.47-.66,2.02-2.32,2.83-2.79.73-.42,1.56-.66,2.4-.7h4.84c2.17,0,3.91,1.91,4.91,3.21.3.44.57.89.81,1.36l-3.95,1.12s-1.15-1.43-1.74-1.78c-.05-.03-.1-.04-.16-.04h-4.57c-.05,0-.11.01-.16.04-.69.44-1.28,1.02-1.74,1.71-.03.14-.04.28-.04.42v11.77c0,.47,1.2,1.47,1.78,1.78.04.04.23.04.27.04h4.41c.07,0,.13-.01.2-.04.81-.38,1.74-1.82,1.74-1.82l3.95,1.04c-.21.52-.49,1.02-.81,1.47Z"/>
  <path class="cls-1" d="M108.37,73.06v-4.88h4.76v4.88h-4.76Z"/>
  <path class="cls-1" d="M129.7,73.06v-9.56h-8.44v9.56h-4.06v-23.15h4.06v9.72h8.44v-9.72h4.06v23.15h-4.06Z"/>
  <path class="cls-1" d="M137.83,73.06v-4.88h4.76v4.88h-4.76Z"/>
  <path class="cls-1" d="M171.2,61.02c-.62.77-1.32,1.46-2.09,2.07-.31.23-.64.41-1.01.54l4.59,9.45h-4.4l-4.3-9.14h-4.44v9.14h-4.07v-23.17h10.88c.98,0,1.94.3,2.75.85.77.63,1.47,1.35,2.09,2.13.46.7.7,1.52.7,2.36v3.4c0,.84-.24,1.66-.7,2.36ZM167.83,55.28c0-.09-.01-.18-.04-.27-.23-.43-.85-1.2-1.24-1.24h-7v6.27h6.81c.35,0,1.12-.74,1.43-1.28.02-.05.04-.1.04-.16v-3.33Z"/>
  <path class="cls-1" d="M193.42,69.77c-.5.66-2.01,2.32-2.83,2.79-.73.43-1.55.67-2.4.7h-5.88c-.85-.02-1.68-.26-2.4-.7-.81-.46-2.36-2.13-2.83-2.79-.42-.66-.64-1.43-.62-2.21v-12.12c-.02-.78.2-1.55.62-2.21.46-.66,2.01-2.32,2.83-2.79.73-.44,1.55-.68,2.4-.7h5.88c.85.02,1.67.26,2.4.7.81.47,2.32,2.13,2.83,2.79.42.66.64,1.43.62,2.21v12.12c.02.78-.2,1.55-.62,2.21ZM180.53,67.52s0,.11.04.15c.45.66,1.03,1.23,1.7,1.67.06.03.13.04.2.04h5.58c.07,0,.13-.01.19-.04.67-.44,1.25-1.01,1.71-1.67.02-.05.04-.1.04-.15v-11.96s0-.15-.04-.19c-.46-.67-1.03-1.25-1.71-1.71-.06-.03-.13-.04-.19-.04h-5.58s-.15,0-.2.04c-.66.46-1.24,1.04-1.69,1.71-.02.06-.04.13-.04.19l-.02,11.96Z"/>
  <path class="cls-1" d="M214.76,70.12c-.6.77-1.29,1.47-2.05,2.09-.83.55-1.8.84-2.79.85h-10.88v-23.15h10.88c1,0,1.97.32,2.79.89.76.62,1.45,1.32,2.05,2.09.45.72.68,1.55.66,2.4v2.86c0,1.63-.62,2.48-1.53,3.37.89.89,1.53,1.7,1.53,3.33v2.94c.01.82-.22,1.63-.66,2.32ZM211.35,58.08v-2.75c0-.07-.02-.13-.04-.2-.35-.62-1.09-1.35-1.43-1.35h-6.78v5.85h6.81c.35,0,1.12-.7,1.4-1.28.03-.09.04-.18.04-.27ZM211.35,67.64v-2.75c0-.07-.01-.13-.04-.19-.35-.62-1.09-1.32-1.43-1.32h-6.78v5.8h6.81c.35,0,1.12-.7,1.4-1.28.03-.09.04-.18.04-.27Z"/>
  <path class="cls-1" d="M220.91,73.06v-23.15h4.06v23.15h-4.06Z"/>
  <path class="cls-1" d="M243.02,73.06l-8.03-15.37v15.37h-4.05v-23.15h4.37l7.94,15.56v-15.56h4.06v23.15h-4.3Z"/>
  <path class="cls-1" d="M269.19,69.77c-.47.7-2.02,2.32-2.83,2.79-.74.42-1.56.65-2.4.7h-6.73c-2.29,0-3.91-1.86-4.92-3.21-.27-.38-.5-.78-.7-1.2l3.82-1.28c.49.67,1.06,1.26,1.7,1.78.09.03.18.04.27.04h6.35c.08,0,.16,0,.23-.04.58-.31,1.74-1.47,1.74-1.78v-2.29c0-.3-.19-.56-.47-.66l-10.06-2.87c-1.97-.54-3.02-2.44-3.02-4.21v-2.09c-.02-.78.18-1.54.58-2.21.81-1.07,1.78-2.01,2.87-2.79.73-.42,1.55-.66,2.4-.7h5.74c2.32,0,3.91,1.91,4.91,3.21.3.42.56.88.76,1.36l-3.9,1.12c-.47-.68-1.04-1.28-1.7-1.78,0,0-.04-.04-.23-.04h-5.46c-.08,0-.16,0-.23.04-.62.31-1.67,1.4-1.67,1.71v1.93c-.01.29.16.55.42.66l10.1,2.94c1.98.54,3.02,2.48,3.02,4.21v2.44c.03.79-.18,1.56-.62,2.22Z"/>
  <path class="cls-1" d="M291.14,69.77c-.5.66-2.02,2.32-2.83,2.79-.73.43-1.55.67-2.4.7h-5.88c-.85-.02-1.68-.26-2.4-.7-.81-.46-2.36-2.13-2.83-2.79-.42-.66-.64-1.43-.62-2.21v-12.12c-.02-.78.2-1.55.62-2.21.47-.66,2.02-2.32,2.83-2.79.73-.44,1.55-.68,2.4-.7h5.88c.85.02,1.67.26,2.4.7.81.47,2.32,2.13,2.83,2.79.42.66.64,1.43.62,2.21v12.12c.02.78-.2,1.55-.62,2.21ZM278.25,67.52s0,.11.04.15c.46.66,1.03,1.23,1.71,1.67.06.03.13.04.19.04h5.56c.07,0,.13-.01.2-.04.68-.44,1.26-1,1.72-1.66.03-.05.04-.1.04-.15v-11.97s0-.15-.04-.19c-.45-.67-1.03-1.25-1.7-1.71-.06-.03-.13-.04-.2-.04h-5.58s-.15,0-.19.04c-.67.46-1.25,1.04-1.71,1.71-.02.06-.04.13-.04.19v11.96Z"/>
  <path class="cls-1" d="M308.83,73.06l-8.03-15.37v15.37h-4.05v-23.15h4.37l7.94,15.56v-15.56h4.06v23.15h-4.3Z"/>
</svg>