<?xml version="1.0" encoding="UTF-8"?>
<svg id="Layer_1" data-name="Layer 1" xmlns="http://www.w3.org/2000/svg" viewBox="0 0 327 123">
  <defs>
    <style>
      .cls-1 {
        fill: #fff;
        stroke-width: 0px;
      }
    </style>
  </defs>
  <path class="cls-1" d="M91.41,73.62c.69,1.83,1.64,3.39,2.86,4.69,1.22,1.3,2.66,2.29,4.33,2.98,1.67.69,3.48,1.03,5.44,1.03s3.69-.36,5.36-1.07,3.12-1.72,4.37-3.02c1.24-1.3,2.21-2.85,2.9-4.65s1.03-3.81,1.03-6.04v-34.32h8.34v55.61h-8.26v-5.16c-1.85,1.96-4.04,3.47-6.55,4.53-2.52,1.06-5.23,1.59-8.14,1.59s-5.73-.52-8.3-1.55c-2.57-1.03-4.79-2.5-6.67-4.41s-3.36-4.2-4.45-6.87c-1.09-2.67-1.63-5.65-1.63-8.94v-34.8h8.34v34.32c0,2.22.34,4.25,1.03,6.08h0ZM140.42,33.22v20.26c1.85-1.85,4-3.32,6.43-4.41s5.08-1.63,7.94-1.63,5.75.56,8.34,1.67c2.6,1.11,4.85,2.62,6.75,4.53s3.42,4.16,4.53,6.75c1.11,2.6,1.67,5.35,1.67,8.26s-.56,5.65-1.67,8.22c-1.11,2.57-2.62,4.81-4.53,6.71-1.91,1.91-4.16,3.42-6.75,4.53-2.6,1.11-5.38,1.67-8.34,1.67s-5.52-.54-7.98-1.63c-2.46-1.09-4.62-2.56-6.47-4.41v5.08h-7.94v-55.61h8.02ZM141.34,74.13c.71,1.69,1.71,3.18,2.98,4.45s2.75,2.28,4.45,3.02c1.69.74,3.52,1.11,5.48,1.11s3.71-.37,5.4-1.11,3.16-1.75,4.41-3.02c1.24-1.27,2.24-2.75,2.98-4.45.74-1.69,1.11-3.52,1.11-5.48s-.37-3.8-1.11-5.52-1.73-3.22-2.98-4.49c-1.24-1.27-2.71-2.26-4.41-2.98s-3.5-1.07-5.4-1.07-3.71.36-5.4,1.07-3.18,1.71-4.45,2.98c-1.27,1.27-2.28,2.77-3.02,4.49s-1.11,3.56-1.11,5.52c0,1.96.36,3.79,1.07,5.48h0ZM180.62,60.47c1.06-2.54,2.52-4.78,4.37-6.71s4.05-3.46,6.59-4.57,5.3-1.67,8.26-1.67,5.61.53,8.1,1.59c2.49,1.06,4.63,2.53,6.43,4.41,1.8,1.88,3.2,4.1,4.21,6.67,1.01,2.57,1.51,5.36,1.51,8.38v2.62h-32.97c.26,1.64.79,3.16,1.59,4.57.79,1.4,1.79,2.62,2.98,3.65,1.19,1.03,2.54,1.84,4.05,2.42,1.51.58,3.11.87,4.81.87,4.82,0,8.71-1.99,11.68-5.96l5.8,4.29c-2.01,2.7-4.5,4.82-7.47,6.36-2.97,1.54-6.3,2.3-10.01,2.3-3.02,0-5.84-.53-8.46-1.59s-4.9-2.54-6.83-4.45-3.46-4.14-4.57-6.71-1.67-5.36-1.67-8.38c0-2.86.53-5.56,1.59-8.1h0ZM191.78,57.33c-2.25,1.88-3.75,4.38-4.49,7.51h24.71c-.69-3.12-2.16-5.63-4.41-7.51-2.25-1.88-4.89-2.82-7.9-2.82s-5.65.94-7.9,2.82h0ZM235.12,58.24c-1.69,1.85-2.54,4.37-2.54,7.55v23.04h-8.02v-40.52h7.94v5c1.01-1.64,2.32-2.94,3.93-3.89,1.62-.95,3.54-1.43,5.76-1.43h2.78v7.47h-3.34c-2.65,0-4.82.93-6.51,2.78h0Z"/>
</svg>