<?xml version="1.0" encoding="UTF-8"?>
<svg id="Layer_1" data-name="Layer 1" xmlns="http://www.w3.org/2000/svg" viewBox="0 0 327 123">
  <defs>
    <style>
      .cls-1, .cls-2 {
        fill: #fff;
        stroke-width: 0px;
      }

      .cls-2 {
        fill-rule: evenodd;
      }
    </style>
  </defs>
  <path id="Layer" class="cls-2" d="M195.8,25.21l-25.19,35.61,26.24,36.97h-23.18l-14.54-20.68-14.64,20.68h-23.07l26.13-36.97-25.19-35.61h23.17l13.6,19.23,13.6-19.23h23.07ZM270.26,61.45c0,21.37-16.39,37.49-38.13,37.49s-38.26-16.11-38.26-37.49c0-10.24,3.91-19.7,11.01-26.63,7.08-6.94,16.76-10.76,27.25-10.76s20.12,3.81,27.19,10.76c7.05,6.93,10.94,16.38,10.94,26.63h0ZM232.12,42.69c-10.35,0-18.15,8.06-18.15,18.76s7.8,18.86,18.15,18.86,18.13-8.11,18.13-18.86-7.8-18.76-18.13-18.76Z"/>
  <path id="Layer-2" data-name="Layer" class="cls-1" d="M106.3,71.65l15.12,26.14h-21.68l-12.76-22.06h-10.85v22.06h-19.38v-39.95h34.37c4.08,0,7.05-3.1,7.05-7.36s-3.03-7.25-7.05-7.25h-34.37v-18.01h34.37c15.43,0,27.05,10.85,27.05,25.26,0,8.81-4.42,16.65-11.86,21.18Z"/>
</svg>