<?xml version="1.0" encoding="UTF-8"?>
<svg id="Layer_1" data-name="Layer 1" xmlns="http://www.w3.org/2000/svg" viewBox="0 0 327 123">
  <defs>
    <style>
      .cls-1 {
        fill: none;
      }

      .cls-1, .cls-2 {
        stroke-width: 0px;
      }

      .cls-2 {
        fill: #fff;
      }
    </style>
  </defs>
  <path class="cls-1" d="M191.6,105.1c-2.6,0-3.9,3.1-2.1,5,1.8,1.8,5,.5,5-2,0-1.7-1.3-3-2.9-3ZM192.4,110.1s-1.1-1.7-1.2-1.8h-.1v1.8h-.8v-4.3h1.2c.8-.1,1.4.5,1.4,1.3,0,.6-.4,1-1,1.1.1.2,1.3,1.9,1.3,1.9h-.8Z"/>
  <path class="cls-1" d="M191.5,106.4h-.4v1.3h.1c.8,0,1-.3,1-.7,0-.2-.1-.6-.7-.6Z"/>
  <path class="cls-2" d="M191.6,104.4c-3.1,0-4.7,3.8-2.5,6s6,.7,6-2.5c0-1.9-1.6-3.5-3.5-3.5ZM189.5,110c-1.8-1.8-.5-5,2.1-5,1.6,0,2.9,1.3,2.9,2.9,0,2.7-3.1,3.9-5,2.1Z"/>
  <path class="cls-2" d="M193,107.1c0-.8-.7-1.4-1.4-1.3h-1.2v4.3h.8v-1.8h.1c.1.1,1.2,1.8,1.2,1.8h.9s-1.2-1.7-1.3-1.9c.5-.1.9-.6.9-1.1ZM191.2,107.7h-.1v-1.3h.4c.7,0,.8.3.8.6-.1.4-.3.7-1.1.7Z"/>
  <path class="cls-2" d="M163.5,11.5c-16.2,0-30.3,3.1-42,9.3v49.5c0,10.4,3.9,19.1,11.3,25.2,6.8,5.5,28.2,15,30.7,16,2.5-1.1,24-10.5,30.7-16,7.4-6.1,11.3-14.8,11.3-25.2V20.8c-11.7-6.2-25.8-9.3-42-9.3ZM203.9,69.9c0,10-3.8,18.4-10.9,24.2-6.5,5.3-27.1,14.4-29.5,15.4-2.4-1-23-10.1-29.5-15.4-7.1-5.8-10.9-14.2-10.9-24.2V22.4c11.3-5.9,24.8-8.9,40.4-8.9s29.1,3,40.4,9v47.4Z"/>
  <path class="cls-2" d="M123.1,22.4v47.5c0,10,3.8,18.4,10.9,24.2,6.5,5.3,27.1,14.4,29.5,15.4,2.4-1,23-10.1,29.5-15.4,7.1-5.8,10.9-14.2,10.9-24.2V22.4c-11.2-5.9-24.8-8.9-40.4-8.9s-29.1,3-40.4,8.9ZM201.7,21.9v48.4c0,9.3-3.4,16.8-9.9,22.2-5.8,4.8-23.4,12.6-28.3,14.8-5-2.2-22.6-10.2-28.3-14.8-6.5-5.3-9.9-13-9.9-22.2v-28.3c18-16.6,39.9-20.9,60.2-20.9,5.6,0,11,.3,16.2.8Z"/>
  <path class="cls-2" d="M162.1,78.5c1.1.3,2.2.4,3.3.4,8.1,0,12.8-7.3,12.8-18s-4.8-17.3-13.5-17.3c-3.5-.1-6.9.8-9.9,2.6v47.6h7.3s0-15.3,0-15.3ZM164.7,49.5c4.2,0,6,3.4,6,11.6s-2,11.9-6.2,11.9c-.8,0-1.6-.2-2.4-.4v-22.5c.8-.4,1.7-.6,2.6-.6Z"/>
  <path class="cls-2" d="M140,79c3.9.1,7.7-.9,11-2.9v-31.7h-7.3v27.5c-1,.6-2.2.9-3.5.9-3.4,0-3.9-3.1-3.9-5.1v-23.3h-7.2v23h0c0,7.7,3.7,11.6,10.9,11.6Z"/>
  <path class="cls-2" d="M186.9,63.5c3.2,1.9,4.5,3.1,4.6,5.4.1,2.6-1.7,4.1-4.4,4.1-2.6-.2-5.1-1.2-7-3v6.7c2.4,1.5,5.2,2.2,8,2.3,7.2,0,10.4-5.1,10.6-9.8.1-4.3-1-7.5-7.1-11.1-2.7-1.6-4.9-2.6-4.8-5.3.1-2.6,2.2-3.5,4.3-3.5,2.5.1,4.8,1.2,6.5,3v-6.4c-2.3-1.7-5.1-2.5-8-2.4-5.3-.1-9.7,4.2-9.8,9.5h0c0,4,1.1,6.9,7.1,10.5Z"/>
</svg>