<?xml version="1.0" encoding="UTF-8"?>
<svg id="Layer_1" data-name="Layer 1" xmlns="http://www.w3.org/2000/svg" viewBox="0 0 327 123">
  <defs>
    <style>
      .cls-1 {
        fill: #fff;
        stroke-width: 0px;
      }
    </style>
  </defs>
  <path class="cls-1" d="M206.64,39.29l-.11-.51-.34.39c-2.81,3.31-6.87,5.36-10.61,5.36-.32,0-.64-.01-.94-.04h-.16s.12-.12.12-.12c1.72-1.55,2.05-3.19,2.48-5.25l.03-.13.03-.15.07-.32h-.33c-.62.04-1.17.06-1.69.06-3.37,0-6.58-.51-7.35-4.17v-.05s.04-.02.04-.02c3.58-1.91,4.43-6.23,4.13-8.5l-.04-.3-.29.08-8.08,2.21c-1.81-1.21-4.05-2.59-5.36-3.34-1.74-1-3.48-2.23-5.17-3.63-.34-.28-.68-.56-1.02-.84-2.12-1.72-4.45-2.6-6.92-2.6-.54,0-1.08.04-1.63.12-2,.29-3.68,1.26-4.93,2.06-2.75,1.78-5.61,2.68-8.53,2.68-1.09,0-2.21-.13-3.32-.37-.56-.15-1.13-.32-1.68-.51-1.16-.42-2.28-.6-3.63-.6-.81,0-1.67.06-2.57.13h-.18c-1.88.16-3.12.52-4.57,1.35l-.1.06v.04c-1.5.75-2.83,1.77-3.95,3.05-2.25,2.55-3.25,5.5-4.06,9.14-.22.73-.38,1.5-.48,2.28l-.02.11-.05.25-.11.54.07-.04c-.7,3.05-2.11,6.85-4.91,8.03l-.37.16.3.27c.52.47,1.13.71,1.81.71,1.52,0,3.04-1.19,3.75-2.37l.08-.14.04.16c.73,2.91,1.81,5.23,2.25,6.1v.02s0,.02,0,.02c-.32,3.07.56,5.03,1.12,5.93v.02s-.52,6.23-.52,6.23l-.02.28h22.46v-.26c-.05-4.27-1.05-5.58-2.54-6.23-.35-.16-.73-.53-1.02-1.03-.12-.31-.62-1.72-.56-3.33.08-2.07,1.07-3.67,2.94-4.76.32.2.66.42,1,.66,1.87,1.3,3.87,2.43,5.96,3.33l-.12.16c-.28.38-.66.88-.79,1.04h-.02s-.06.09-.06.09c-1.01,1.39-1.67,2.07-2.11,2.53-.83.86-.83,1.93-.78,4.27v.03c.02.78.04,1.84.05,3.27v.26h12.32l.02-.24c.17-2.16.23-4.63-1.22-6.55l-.04-.06.06-.04c.78-.56,1.5-1.26,2.16-2.05l.12-.14.13,8.82v.25h12.53v-.27c-.07-2.63-.9-3.25-1.71-3.86-.95-.71-2.03-2.46-1.84-6.75.29-3.43,1.21-6.72,1.93-6.88h.06s.01.05.01.05c1.49,6.04,8.63,11.35,10.46,12.43l.16.09.14-.12,1.98-1.65,1.64.83.1.05.11-.04c2.1-.76,2.94-2.54,3.92-4.6l.18-.38h.04c3.35-.11,6.37-1.72,8.32-4.41,1.7-2.45,2.33-5.49,1.68-8.36ZM194.65,49.17c-.35,1.06-1.08,3.18-2.24,4.21-.08.08-.17.14-.26.2l-.13.1-2.05-.7-1.6,1.42-.21-.14c-3.78-2.49-6.15-5.81-7.47-10.47l-.08-.29.28-.11c.73-.28,1.63-.59,2.28-.79-1.25-.47-2.66-1.02-3.97-.72-3.12.71-5.34,2.4-6.36,7.74-.66,3.47.76,9.1,1.58,10.12l.43.54h-5.16v-.33c0-2.7-.61-6.3-1.24-9.09,0,0,0,0-.01,0-.52-2.98-.49-5.67,1.23-7.65-1.16.23-2.31.94-3.17,1.98-1.17,1.41-1.65,3.19-1.33,4.87l.04.18c-2.82-.27-7.4-1.63-12.08-4.89-3.24-2.26-5.62-2.69-7.39-2.52.44-.87.64-1.69.58-2.47-.07-.89-.47-1.71-1.18-2.46-.28,2.22-1.83,4.34-3.5,6.4-.81.66-1.88,2-3.21,4.56-2.28,3.26-3.45,7.29.06,10.85l.55.56h-6.74l-.41-5.09c-.94-1.23-.83-2.48-.73-3.58.07-.73.13-1.37-.14-1.87-.2-.37-3.91-7.45-2.58-13.62.05-.01.09-.03.14-.04.71-3.4,1.47-6.35,3.6-8.76.9-1.02,1.96-1.83,3.16-2.41l1.14-.56v-.06c.63-.24,1.33-.39,2.38-.47h.18c.88-.08,1.64-.14,2.34-.14,1.02,0,1.81.13,2.66.43.64.23,1.28.43,1.94.6l.08.02c1.32.3,2.65.44,3.95.44,3.49,0,6.89-1.06,10.11-3.15,1.48-.96,2.64-1.46,3.77-1.62.41-.06.82-.09,1.21-.09,1.5,0,2.91.44,4.26,1.33.28.18.56.39.84.62.33.27.66.54,1,.82,1.82,1.51,3.7,2.83,5.58,3.91.99.57,2.77,1.65,4.41,2.72.01-.01.03-.02.04-.04l1.71,1.07,5.53-1.37-.25.55c-.47,1.02-.97,1.54-1.56,1.86-.11.06-.23.11-.34.16-.38.16-.8.25-1.28.37l-.08.02c-.23,5.33,2.58,8.53,7.9,9.03l1.05.1-4.11,2.31c2.24,1.98,4.62,2.98,7.09,2.98,1.68,0,3.39-.48,5.08-1.43l.84-.47-.37.88c-.98,2.33-3.14,3.72-5.78,3.72-.64-.01-1.33-.11-1.98-.3ZM161.55,54.7l-.16,2.46c.31.23.93,1.82,1.29,2.68l.19.46h-6.75v-3.12l.08-.09c.66-.73,2.48-3.07,3.61-4.85,1.35.45,2.63.77,3.79.96-.57.62-1.26,1.13-2.06,1.5ZM144.57,53.68c.04.9.24,1.73.55,2.47.08.21.16.41.23.59h.04c.78,1.48,1.95,2.51,2.69,2.9.08.04.11.06.14.08l.66.58h-7.14l-.09-.08c-1.95-1.76-2.52-4.48-1.71-7.25.54-1.2,1.12-2.36,1.67-3.36.01-.02.03-.04.04-.06h0c.8-1.46,1.53-2.54,1.93-2.81.19-.07.39-.15.6-.23.9-.37,1.88-.76,3.35-.44-2.65,2.17-3.2,5.14-2.94,7.61ZM157.2,20.7c.06-.03.11-.06.17-.09-.06.03-.11.06-.17.09ZM157.86,20.32c.06-.04.12-.07.18-.11-.06.04-.12.07-.18.11ZM156.44,21.07s.08-.04.11-.05c-.04.01-.08.04-.11.05ZM152.82,22.27s.04,0,.06-.01c-.03,0-.05.01-.06.01ZM153.49,22.12c.06-.01.13-.04.2-.05-.06.01-.13.03-.2.05ZM154.2,21.92c.06-.01.11-.04.17-.05-.06.02-.11.04-.17.05ZM155.03,21.66s.09-.04.13-.05c-.04.01-.08.04-.13.05ZM155.7,21.4c.06-.03.13-.06.2-.08-.07.04-.13.06-.2.08ZM148.61,22.47c.16.01.32.03.49.04-.16,0-.32-.03-.49-.04ZM168.07,18.12c.11.04.2.06.31.1-.1-.03-.2-.06-.31-.1ZM168.56,18.29c.11.04.21.08.31.12-.11-.04-.21-.08-.31-.12ZM169.03,18.48c.13.06.26.11.4.18-.13-.06-.27-.12-.4-.18ZM169.49,18.69c.16.07.3.16.45.23-.15-.08-.3-.16-.45-.23ZM170.09,19c.11.06.21.12.32.18-.11-.07-.21-.13-.32-.18ZM170.56,19.28c.1.06.19.12.29.18-.09-.06-.19-.13-.29-.18ZM167.9,18.07c-.12-.04-.24-.06-.35-.1.11.03.23.06.35.1ZM165.71,17.69c-.11,0-.23-.01-.35-.01.12,0,.23.01.35.01ZM165.19,17.68h-.2s.08,0,.12,0c.03,0,.05,0,.08,0ZM147.47,22.32c-.28-.05-.55-.1-.83-.16.28.06.55.12.83.16ZM142.65,21.11s.09.01.14.01c-.05,0-.1,0-.14-.01ZM143.06,21.17c.06,0,.11.01.16.03-.06-.01-.11-.02-.16-.03ZM143.9,21.33s.11.03.16.04c-.06-.02-.11-.03-.16-.04ZM144.36,21.45s.09.03.13.04c-.04-.01-.08-.03-.13-.04ZM141.42,21.05h-.11.11ZM140.01,21.1s.08,0,.11,0c-.04,0-.07,0-.11,0ZM139.41,21.14c-.06,0-.11,0-.16.01.06,0,.11,0,.16-.01ZM150.86,60.03c.04.18.07.38.1.59-.04-.21-.06-.41-.1-.59-.04-.18-.07-.36-.11-.52.04.16.08.34.11.52ZM149.23,57.11c.17.11.35.24.51.4-.17-.16-.34-.29-.51-.4-.07-.04-.14-.08-.2-.12.06.04.13.08.2.12ZM148.55,56.77c-.11-.06-.2-.13-.3-.22.1.08.2.16.3.22ZM147.53,55.63s.02.06.03.07c0-.02-.02-.04-.03-.07-.04-.11-.11-.3-.18-.53.07.23.13.41.18.53ZM176.76,58.38c-.12-.18-.24-.37-.35-.6.11.22.23.42.35.6ZM176.25,57.42c-.36-.87-.62-2.07-.67-3.7.05,1.64.31,2.83.67,3.7Z"/>
  <path class="cls-1" d="M120.63,67.78h8.12l11.75,20.34v-20.34h6.22v30.87h-7l-12.88-21.97v21.97h-6.22v-30.87h0Z"/>
  <path class="cls-1" d="M157.71,73.21h-8.34v-5.44h23.72v5.44h-8.34v25.43h-7.04v-25.43h0Z"/>
  <path class="cls-1" d="M172.82,83.4v-.35c0-9.28,6.61-15.76,15.73-15.76,6.87,0,13.01,3.15,13.74,10.8h-6.96c-.61-3.62-2.98-5.27-6.7-5.27-5.36,0-8.51,4.01-8.51,10.32v.35c0,5.96,2.55,10.23,8.6,10.23,5.19,0,7.3-2.98,7.43-6.52h-6.96v-5.1h13.87v3.28c0,8.24-5.27,13.73-14.52,13.73-10.11.01-15.72-6.55-15.72-15.7Z"/>
  <path class="cls-1" d="M181.1,60.66c.07,0,.14,0,.21,0h20.83v2.5h-21.04v-2.51Z"/>
  <path class="cls-1" d="M120.6,103.06c.28,0,.54,0,.82,0h80.71v2.5h-81.53v-2.51Z"/>
  <path class="cls-1" d="M120.34,60.66s.04,0,.06,0h6.53v2.5h-6.6v-2.51Z"/>
</svg>