<?xml version="1.0" encoding="UTF-8"?>
<svg id="Layer_1" data-name="Layer 1" xmlns="http://www.w3.org/2000/svg" viewBox="0 0 274.23 225">
  <defs>
    <style>
      .cls-1 {
        fill: #002e56;
      }

      .cls-1, .cls-2 {
        stroke-width: 0px;
      }

      .cls-2 {
        fill: #ffaf29;
      }
    </style>
  </defs>
  <g>
    <g>
      <g>
        <path class="cls-1" d="M27.34,0l25.49,26.63v122.31l84.21,41.5,84.22-41.5V25.63L246.89,0H27.34ZM217.26,23.98v122.47l-80.22,39.53-80.21-39.53V25.02L36.7,4h200.54l-19.98,19.98Z"/>
        <path class="cls-2" d="M36.7,4l20.13,21.02v121.43l80.21,39.53,80.22-39.53V23.98l19.98-19.98H36.7ZM190.15,80.63h-17.19v-8.93h14.98s2.21,1.2,2.21,8.93ZM186.4,69.4h-14.97l-1.03-4.08c14.81,0,16,4.08,16,4.08ZM129.88,74.86l.69.58c.67.53,6.68,5.15,11.67.16l.74-.74h26.63l1.37,40.49h-67.87l1.1-40.49h25.67ZM105.04,71.7s1.11-7.41,6.9-9.36h50.81s6.46,2.21,6.46,9.36h-23.15s-8.97-8.81-17.78,0h-23.24ZM154.92,25.32l4.34-4c5.53,0,5.7,5.7,5.7,5.7,4.94-4.94,12.6,35.32,12.6,35.32h-6.3c-8.51-31.92-8.17-34.98-8.17-34.98-3.23-6.3-6.3.17-6.3.17-2.04.68-1.87-2.21-1.87-2.21ZM123.78,28.54h27.55c1.17,0,3.39,2.81,3.39,2.81l7.44,27.83c-2.1-2.05-16.51-3.32-24.6-3.88-8.09.56-22.51,1.83-24.6,3.88l7.43-27.83s2.22-2.81,3.39-2.81ZM110.15,27.02s.17-5.7,5.7-5.7l4.34,4s.17,2.89-1.87,2.21c0,0-3.06-6.47-6.3-.17,0,0,.34,3.06-8.17,34.98h-6.3s7.66-40.26,12.6-35.32ZM103.85,65.32l-1.02,4.08h-14.98s1.19-4.08,16-4.08ZM86.32,71.7h14.98v8.93h-17.19c0-7.73,2.21-8.93,2.21-8.93ZM79,98.51s2.04-11.07,7.49-11.07v-4.42h14.81l-1.02,23.15s-12.09.34-21.28,9.53v-17.19ZM121.89,164.38l-38.8-15.32h45.61s-6.81,4.77-6.81,15.32ZM151.51,164.38c0-10.55-6.81-15.32-6.81-15.32h45.62l-38.81,15.32ZM190.15,139.36s-8,3.57-27.58,0v-3.41h-50.55v3.41c-19.57,3.57-27.57,0-27.57,0,0-8.85-4.09-7.32-4.09-7.32,0-21.79,12.94-21.45,12.94-21.45-4.09,4.09.51,6.81.51,6.81h86.98s4.59-2.72.51-6.81c0,0,12.93-.34,12.93,21.45,0,0-4.08-1.53-4.08,7.32ZM195.09,115.7c-9.2-9.19-21.28-9.53-21.28-9.53l-1.02-23.15h14.81v4.42c5.44,0,7.49,11.07,7.49,11.07v17.19Z"/>
      </g>
      <path class="cls-1" d="M128.7,149.06s-6.81,4.77-6.81,15.32l-38.8-15.32h45.61Z"/>
      <path class="cls-1" d="M190.32,149.06l-38.81,15.32c0-10.55-6.81-15.32-6.81-15.32h45.62Z"/>
      <path class="cls-1" d="M194.23,132.04s-4.08-1.53-4.08,7.32c0,0-8,3.57-27.58,0v-3.41h-50.55v3.41c-19.57,3.57-27.57,0-27.57,0,0-8.85-4.09-7.32-4.09-7.32,0-21.79,12.94-21.45,12.94-21.45-4.09,4.09.51,6.81.51,6.81h86.98s4.59-2.72.51-6.81c0,0,12.93-.34,12.93,21.45Z"/>
      <g>
        <path class="cls-1" d="M169.61,74.86h-26.63l-.74.74c-4.99,4.99-11,.37-11.67-.16l-.69-.58h-25.67l-1.1,40.49h67.87l-1.37-40.49ZM109.08,79.86h19.06c3.63,2.6,10.8,5.25,16.85,0h19.78l.22,6.59h-56.09l.18-6.59ZM108.82,89.45h56.27l.09,2.5h-56.43l.07-2.5ZM108.67,94.95h56.61l.08,2.49h-56.76l.07-2.49ZM108.52,100.44h56.95l.1,2.99h-57.13l.08-2.99ZM108.25,110.35l.11-3.92h57.31l.13,3.92h-57.55Z"/>
        <polygon class="cls-2" points="165.36 97.44 108.6 97.44 108.67 94.95 165.28 94.95 165.36 97.44"/>
        <polygon class="cls-2" points="165.18 91.95 108.75 91.95 108.82 89.45 165.09 89.45 165.18 91.95"/>
        <path class="cls-2" d="M164.99,86.45h-56.09l.18-6.59h19.06c3.63,2.6,10.8,5.25,16.85,0h19.78l.22,6.59Z"/>
        <polygon class="cls-2" points="165.57 103.43 108.44 103.43 108.52 100.44 165.47 100.44 165.57 103.43"/>
        <polygon class="cls-2" points="165.8 110.35 108.25 110.35 108.36 106.43 165.67 106.43 165.8 110.35"/>
      </g>
      <path class="cls-1" d="M169.21,71.7h-23.15s-8.97-8.81-17.78,0h-23.24s1.11-7.41,6.9-9.36h50.81s6.46,2.21,6.46,9.36Z"/>
      <path class="cls-1" d="M162.16,59.18c-2.1-2.05-16.51-3.32-24.6-3.88-8.09.56-22.51,1.83-24.6,3.88l7.43-27.83s2.22-2.81,3.39-2.81h27.55c1.17,0,3.39,2.81,3.39,2.81l7.44,27.83Z"/>
      <path class="cls-1" d="M101.3,83.02l-1.02,23.15s-12.09.34-21.28,9.53v-17.19s2.04-11.07,7.49-11.07v-4.42h14.81Z"/>
      <path class="cls-1" d="M195.09,98.51v17.19c-9.2-9.19-21.28-9.53-21.28-9.53l-1.02-23.15h14.81v4.42c5.44,0,7.49,11.07,7.49,11.07Z"/>
      <path class="cls-1" d="M101.3,71.7v8.93h-17.19c0-7.73,2.21-8.93,2.21-8.93h14.98Z"/>
      <path class="cls-1" d="M103.85,65.32l-1.02,4.08h-14.98s1.19-4.08,16-4.08Z"/>
      <path class="cls-1" d="M190.15,80.63h-17.19v-8.93h14.98s2.21,1.2,2.21,8.93Z"/>
      <path class="cls-1" d="M186.4,69.4h-14.97l-1.03-4.08c14.81,0,16,4.08,16,4.08Z"/>
      <path class="cls-1" d="M118.32,27.53s-3.06-6.47-6.3-.17c0,0,.34,3.06-8.17,34.98h-6.3s7.66-40.26,12.6-35.32c0,0,.17-5.7,5.7-5.7l4.34,4s.17,2.89-1.87,2.21Z"/>
      <path class="cls-1" d="M177.56,62.34h-6.3c-8.51-31.92-8.17-34.98-8.17-34.98-3.23-6.3-6.3.17-6.3.17-2.04.68-1.87-2.21-1.87-2.21l4.34-4c5.53,0,5.7,5.7,5.7,5.7,4.94-4.94,12.6,35.32,12.6,35.32Z"/>
    </g>
    <polygon class="cls-1" points="135.08 156.15 137.01 151.61 139.07 156.1 143.97 155.5 141.11 159.53 144.08 163.48 139.16 163.01 137.22 167.56 135.17 163.06 130.26 163.66 133.13 159.63 130.16 155.68 135.08 156.15"/>
  </g>
  <g>
    <path class="cls-1" d="M0,225v-18.75h18.75v3.75H3.75v3.75h7.5v3.75H3.75v7.5H0Z"/>
    <path class="cls-1" d="M23.7,225v-18.75h18.75v11.25h-5.19l5.19,5.26v2.24h-3.13l-7.35-7.5h-4.51v7.5h-3.75ZM38.7,213.75v-3.75h-11.25v3.75h11.25Z"/>
    <path class="cls-1" d="M47.4,225v-18.75h18.75v3.75h-15v3.75h7.5v3.75h-7.5v3.75h15v3.75h-18.75Z"/>
    <path class="cls-1" d="M71.1,225v-18.75h3.75v18.75h-3.75Z"/>
    <path class="cls-1" d="M79.8,225v-18.75h18.75v3.75h-15v11.25h11.25v-3.75h-7.5v-3.75h11.25v11.25h-18.75Z"/>
    <path class="cls-1" d="M103.5,225v-18.75h3.75v7.5h11.25v-7.5h3.75v18.75h-3.75v-7.5h-11.25v7.5h-3.75Z"/>
    <path class="cls-1" d="M134.7,225v-15h-7.5v-3.75h18.75v3.75h-7.5v15h-3.75Z"/>
    <path class="cls-1" d="M160.68,225v-18.75h18.75v18.75h-3.75v-15h-3.75v15h-3.75v-15h-3.75v15h-3.75Z"/>
    <path class="cls-1" d="M184.38,225v-18.75h18.75v18.75h-3.75v-7.5h-11.25v7.5h-3.75ZM199.38,213.75v-3.75h-11.25v3.75h11.25Z"/>
    <path class="cls-1" d="M215.58,225v-15h-7.5v-3.75h18.75v3.75h-7.5v15h-3.75Z"/>
    <path class="cls-1" d="M231.78,225v-18.75h18.75v3.75h-15v11.25h15v3.75h-18.75Z"/>
    <path class="cls-1" d="M255.48,225v-18.75h3.75v7.5h11.25v-7.5h3.75v18.75h-3.75v-7.5h-11.25v7.5h-3.75Z"/>
  </g>
</svg>